<?xml version="1.0" standalone="no"?>
<!DOCTYPE svg PUBLIC "-//W3C//DTD SVG 20010904//EN"
 "http://www.w3.org/TR/2001/REC-SVG-20010904/DTD/svg10.dtd">
<svg version="1.0" xmlns="http://www.w3.org/2000/svg"
 width="700.000000pt" height="700.000000pt" viewBox="0 0 700.000000 700.000000"
 preserveAspectRatio="xMidYMid meet">
<metadata>
Created by potrace 1.14, written by Peter Selinger 2001-2017
</metadata>
<g transform="translate(0.000000,700.000000) scale(0.100000,-0.100000)"
fill="#000000" stroke="none">
<path d="M1750 6125 l0 -875 -875 0 -875 0 0 -1750 0 -1750 875 0 875 0 0
-875 0 -875 1750 0 1750 0 0 875 0 875 875 0 875 0 0 1750 0 1750 -875 0 -875
0 0 875 0 875 -1750 0 -1750 0 0 -875z m1757 35 c2 -11 -1 -20 -5 -20 -4 0 -8
11 -8 25 0 28 8 24 13 -5z m5 -72 c0 -24 2 -47 3 -53 1 -5 5 -41 9 -80 5 -38
10 -79 12 -90 2 -11 7 -33 10 -50 31 -174 87 -366 156 -540 42 -107 140 -306
182 -374 14 -22 26 -42 26 -45 0 -9 117 -176 189 -271 86 -113 285 -320 393
-411 291 -244 587 -410 956 -535 61 -20 112 -36 112 -34 0 2 17 -2 39 -10 39
-13 213 -50 286 -60 22 -3 49 -7 60 -10 23 -5 167 -18 207 -19 36 -1 24 -11
-15 -12 -104 -5 -209 -19 -372 -49 -207 -40 -474 -130 -682 -232 -65 -32 -120
-60 -123 -63 -3 -3 -25 -16 -50 -29 -158 -86 -383 -257 -551 -418 -377 -365
-642 -821 -771 -1328 -16 -66 -31 -127 -33 -135 -1 -8 -5 -31 -9 -50 -3 -19
-8 -52 -12 -74 -3 -21 -7 -46 -9 -56 -4 -23 -18 -167 -19 -207 -2 -56 -11 -44
-14 20 -2 34 -5 76 -7 92 -10 100 -18 158 -31 217 -7 37 -16 82 -19 100 -17
98 -88 325 -142 458 -146 354 -344 651 -618 926 -182 183 -337 306 -535 426
-328 198 -734 341 -1085 383 -124 14 -194 21 -219 19 -14 0 -24 2 -20 5 3 3
22 6 42 7 127 6 248 23 423 60 106 22 315 82 364 104 11 5 52 21 90 36 211 81
494 245 695 404 129 101 345 317 451 450 289 362 493 808 573 1255 3 17 8 39
10 50 4 21 18 124 22 158 1 9 2 37 3 62 1 57 20 59 23 3z"/>
</g>
</svg>
