<svg width="1920" height="971" viewBox="0 0 1920 971" fill="none" xmlns="http://www.w3.org/2000/svg">
<g opacity="0.54">
<path d="M1591.5 237.5H1957.52C1957.53 237.773 1957.55 238.163 1957.56 238.665C1957.59 239.746 1957.62 241.349 1957.62 243.43C1957.62 247.593 1957.49 253.67 1956.98 261.318C1955.96 276.615 1953.41 298.196 1947.33 323.32C1935.15 373.568 1908.82 437.978 1852.15 494.646C1795.48 551.316 1730.19 578.531 1679.06 591.578C1653.5 598.101 1631.48 601.082 1615.86 602.432C1608.04 603.106 1601.83 603.373 1597.57 603.472C1595.44 603.521 1593.8 603.528 1592.69 603.523C1592.18 603.52 1591.78 603.515 1591.5 603.511V237.5Z" stroke="#8E8E8E"/>
<path d="M1591.62 237.524H1225.6C1225.59 237.251 1225.57 236.862 1225.56 236.36C1225.53 235.278 1225.5 233.675 1225.5 231.594C1225.5 227.431 1225.63 221.354 1226.15 213.706C1227.17 198.409 1229.71 176.829 1235.8 151.705C1247.97 101.456 1274.31 37.0467 1330.98 -19.622C1387.65 -76.2915 1452.93 -103.506 1504.06 -116.554C1529.62 -123.077 1551.64 -126.057 1567.27 -127.407C1575.08 -128.082 1581.29 -128.349 1585.55 -128.447C1587.68 -128.497 1589.32 -128.504 1590.43 -128.498C1590.94 -128.496 1591.34 -128.491 1591.62 -128.486V237.524Z" stroke="#8E8E8E"/>
<path d="M1225.5 603.5H1591.52C1591.53 603.773 1591.55 604.163 1591.56 604.665C1591.59 605.746 1591.62 607.349 1591.62 609.43C1591.62 613.593 1591.49 619.67 1590.98 627.318C1589.96 642.615 1587.41 664.196 1581.33 689.32C1569.15 739.568 1542.82 803.978 1486.15 860.646C1429.48 917.316 1364.19 944.531 1313.06 957.578C1287.5 964.101 1265.48 967.082 1249.86 968.432C1242.04 969.106 1235.83 969.373 1231.57 969.472C1229.44 969.521 1227.8 969.528 1226.69 969.523C1226.18 969.52 1225.78 969.515 1225.5 969.511V603.5Z" stroke="#8E8E8E"/>
<path d="M705.5 225.5C705.5 500.538 482.761 723.5 208 723.5C-66.7612 723.5 -289.5 500.538 -289.5 225.5C-289.5 -49.5383 -66.7612 -272.5 208 -272.5C482.761 -272.5 705.5 -49.5383 705.5 225.5Z" stroke="#8E8E8E"/>
</g>
</svg>
