<svg width="1350" height="520" viewBox="0 0 1350 520" fill="none" xmlns="http://www.w3.org/2000/svg">
<g opacity="0.3">
<path d="M887.418 235.814L887.418 697.411C887.402 697.411 887.386 697.412 887.37 697.413C887.023 697.427 886.506 697.447 885.823 697.466C884.459 697.505 882.438 697.544 879.813 697.542C874.563 697.538 866.901 697.373 857.258 696.729C837.971 695.441 810.763 692.234 779.088 684.561C715.737 669.215 634.531 636.007 563.083 564.56C491.635 493.112 457.324 410.801 440.875 346.343C432.65 314.115 428.893 286.354 427.191 266.653C426.34 256.803 426.004 248.968 425.879 243.597C425.817 240.912 425.809 238.843 425.815 237.446C425.818 236.748 425.826 236.217 425.832 235.862C425.832 235.846 425.833 235.829 425.833 235.814L887.418 235.814Z" stroke="white"/>
<path d="M887.418 -225.5L887.418 235.943C887.402 235.944 887.386 235.944 887.37 235.945C887.023 235.96 886.506 235.979 885.824 235.999C884.459 236.037 882.438 236.076 879.814 236.074C874.564 236.07 866.903 235.906 857.26 235.262C837.975 233.974 810.768 230.768 779.095 223.098C715.748 207.757 634.548 174.56 563.105 103.136C491.661 31.712 457.352 -50.5713 440.904 -115.007C432.681 -147.225 428.923 -174.976 427.222 -194.671C426.371 -204.518 426.034 -212.351 425.91 -217.719C425.848 -220.404 425.839 -222.472 425.846 -223.868C425.849 -224.567 425.856 -225.097 425.863 -225.452C425.863 -225.468 425.863 -225.484 425.863 -225.5L887.418 -225.5Z" stroke="white"/>
<path d="M1348.73 235.814L1348.73 697.257C1348.72 697.258 1348.7 697.258 1348.69 697.259C1348.34 697.273 1347.82 697.293 1347.14 697.312C1345.78 697.351 1343.75 697.39 1341.13 697.388C1335.88 697.384 1328.22 697.219 1318.58 696.575C1299.29 695.288 1272.08 692.082 1240.41 684.412C1177.06 669.071 1095.86 635.874 1024.42 564.45C952.978 493.026 918.668 410.742 902.221 346.306C893.997 314.089 890.24 286.337 888.538 266.643C887.687 256.796 887.351 248.963 887.227 243.594C887.164 240.91 887.156 238.842 887.162 237.445C887.165 236.747 887.173 236.217 887.179 235.862C887.179 235.845 887.18 235.829 887.18 235.814L1348.73 235.814Z" stroke="white"/>
<path d="M887.129 236.228L887.129 -225.369C887.145 -225.37 887.16 -225.37 887.177 -225.371C887.524 -225.386 888.041 -225.405 888.723 -225.425C890.088 -225.463 892.109 -225.502 894.734 -225.5C899.983 -225.496 907.646 -225.332 917.289 -224.687C936.575 -223.399 963.784 -220.192 995.459 -212.52C1058.81 -197.174 1140.02 -163.966 1211.46 -92.5182C1282.91 -21.0699 1317.22 61.2409 1333.67 125.698C1341.9 157.926 1345.65 185.687 1347.36 205.389C1348.21 215.239 1348.54 223.074 1348.67 228.445C1348.73 231.13 1348.74 233.199 1348.73 234.596C1348.73 235.294 1348.72 235.824 1348.71 236.18C1348.71 236.196 1348.71 236.212 1348.71 236.228L887.129 236.228Z" stroke="white"/>
<path d="M426.109 -225.5L426.109 236.097C426.094 236.098 426.078 236.098 426.061 236.099C425.715 236.114 425.197 236.133 424.515 236.153C423.151 236.191 421.129 236.23 418.504 236.228C413.255 236.224 405.593 236.06 395.949 235.415C376.663 234.127 349.455 230.92 317.78 223.248C254.429 207.902 173.222 174.694 101.775 103.246C30.3263 31.798 -3.98508 -50.5128 -20.4339 -114.97C-28.6582 -147.198 -32.4159 -174.959 -34.1175 -194.661C-34.9683 -204.511 -35.305 -212.346 -35.4291 -217.717C-35.4912 -220.402 -35.5 -222.471 -35.4934 -223.868C-35.4901 -224.566 -35.483 -225.096 -35.4767 -225.452C-35.4763 -225.468 -35.4761 -225.484 -35.4758 -225.5L426.109 -225.5Z" stroke="white"/>
<circle cx="172.002" cy="467.231" r="198.646" transform="rotate(90 172.002 467.231)" stroke="white"/>
</g>
</svg>
