<svg width="375" height="825" viewBox="0 0 375 825" fill="none" xmlns="http://www.w3.org/2000/svg">
<g opacity="0.3" clip-path="url(#clip0_203_3474)">
<path d="M34.5 249.5C-72.0909 249.5 -158.5 163.091 -158.5 56.5C-158.5 -50.091 -72.0909 -136.5 34.5 -136.5C141.091 -136.5 227.5 -50.091 227.5 56.5C227.5 163.091 141.091 249.5 34.5 249.5Z" stroke="white"/>
<path d="M421.5 629.5L421.5 953.414C421.262 953.424 420.936 953.435 420.524 953.447C419.567 953.474 418.148 953.501 416.306 953.5C412.621 953.497 407.241 953.382 400.47 952.93C386.927 952.025 367.821 949.774 345.577 944.387C301.089 933.614 244.065 910.3 193.895 860.143C143.723 809.985 119.628 752.2 108.077 706.946C102.301 684.319 99.6623 664.829 98.4674 650.999C97.87 644.083 97.6336 638.584 97.5464 634.814C97.5029 632.93 97.4967 631.478 97.5013 630.498C97.5033 630.077 97.5073 629.743 97.5112 629.5L421.5 629.5Z" stroke="white"/>
<path d="M421.5 304.5L421.5 628.414C421.262 628.424 420.936 628.435 420.524 628.447C419.567 628.474 418.148 628.501 416.306 628.5C412.621 628.497 407.241 628.382 400.47 627.93C386.927 627.025 367.821 624.774 345.577 619.387C301.089 608.614 244.065 585.3 193.895 535.143C143.723 484.985 119.628 427.2 108.077 381.946C102.301 359.319 99.6623 339.829 98.4674 325.999C97.87 319.083 97.6336 313.584 97.5464 309.814C97.5029 307.93 97.4967 306.478 97.5013 305.498C97.5033 305.077 97.5073 304.743 97.5112 304.5L421.5 304.5Z" stroke="white"/>
<path d="M97.5 304.5L97.5 629.414C97.2622 629.423 96.9359 629.435 96.5242 629.447C95.5672 629.474 94.1485 629.501 92.306 629.5C88.621 629.497 83.2413 629.381 76.4701 628.928C62.9274 628.021 43.8211 625.763 21.5776 620.359C-22.9101 609.552 -79.934 586.168 -130.105 535.856C-180.277 485.543 -204.372 427.58 -215.923 382.186C-221.699 359.49 -224.338 339.94 -225.533 326.067C-226.13 319.13 -226.366 313.613 -226.454 309.832C-226.497 307.942 -226.503 306.486 -226.499 305.503C-226.497 305.08 -226.493 304.744 -226.489 304.5L97.5 304.5Z" stroke="white"/>
</g>
<defs>
<clipPath id="clip0_203_3474">
<rect width="375" height="954" fill="white"/>
</clipPath>
</defs>
</svg>
