<svg width="375" height="671" viewBox="0 0 375 671" fill="none" xmlns="http://www.w3.org/2000/svg">
<g opacity="0.4">
<path d="M234.074 335L234.074 669.443C233.896 669.452 233.668 669.462 233.39 669.472C232.63 669.5 231.501 669.528 230.034 669.526C227.101 669.524 222.816 669.405 217.423 668.938C206.636 668.006 191.414 665.684 173.692 660.127C138.251 649.015 92.8002 624.963 52.801 573.189C12.7949 521.406 -6.42362 461.74 -15.6381 415.001C-20.2449 391.635 -22.3497 371.507 -23.3029 357.223C-23.7795 350.081 -23.9681 344.4 -24.0376 340.506C-24.0724 338.559 -24.0773 337.059 -24.0736 336.047C-24.072 335.603 -24.0688 335.253 -24.0656 335L234.074 335Z" stroke="#838383"/>
<path d="M234.074 0.5L234.074 334.831C233.896 334.839 233.668 334.85 233.39 334.86C232.63 334.888 231.501 334.916 230.034 334.914C227.101 334.912 222.817 334.793 217.424 334.326C206.638 333.394 191.417 331.073 173.696 325.518C138.257 314.409 92.8096 290.366 52.813 238.609C12.8096 186.843 -6.40764 127.197 -15.6215 80.4741C-20.228 57.1155 -22.3327 36.9944 -23.2858 22.7147C-23.7624 15.575 -23.951 9.89618 -24.0204 6.00372C-24.0552 4.05751 -24.0602 2.55793 -24.0565 1.54569C-24.0549 1.1026 -24.0516 0.752901 -24.0484 0.499989L234.074 0.5Z" stroke="#838383"/>
<path d="M492.501 335L492.501 669.331C492.323 669.34 492.095 669.35 491.817 669.36C491.056 669.388 489.928 669.416 488.461 669.415C485.528 669.412 481.244 669.293 475.851 668.827C465.065 667.894 449.844 665.574 432.123 660.019C396.684 648.91 351.236 624.866 311.24 573.109C271.236 521.344 252.019 461.697 242.805 414.975C238.199 391.616 236.094 371.495 235.141 357.215C234.664 350.076 234.476 344.397 234.406 340.504C234.372 338.558 234.367 337.058 234.37 336.046C234.372 335.603 234.375 335.253 234.378 335L492.501 335Z" stroke="#838383"/>
<path d="M234.353 335.026L234.353 0.583679C234.531 0.574799 234.759 0.564575 235.036 0.554352C235.797 0.526367 236.926 0.498596 238.393 0.499909C241.326 0.502594 245.61 0.621674 251.004 1.08801C261.791 2.02075 277.012 4.3425 294.735 9.89933C330.176 21.0116 375.627 45.0632 415.626 96.8374C455.632 148.62 474.85 208.287 484.065 255.025C488.672 278.391 490.776 298.519 491.73 312.804C492.206 319.946 492.395 325.626 492.464 329.52C492.499 331.467 492.504 332.967 492.5 333.98C492.499 334.423 492.496 334.773 492.492 335.026L234.353 335.026Z" stroke="#838383"/>
</g>
</svg>
