<svg width="1481" height="942" viewBox="0 0 1481 942" fill="none" xmlns="http://www.w3.org/2000/svg">
<g opacity="0.3" clip-path="url(#clip0_97_4159)">
<path d="M890.383 432.616L890.383 1023.37C890.323 1023.37 890.258 1023.37 890.188 1023.38C889.744 1023.4 889.081 1023.42 888.207 1023.45C886.461 1023.49 883.874 1023.54 880.515 1023.54C873.797 1023.54 863.992 1023.33 851.653 1022.5C826.975 1020.85 792.162 1016.75 751.634 1006.93C670.577 987.298 566.672 944.808 475.253 853.389C383.833 761.97 339.932 656.652 318.886 574.181C308.363 532.946 303.555 497.426 301.378 472.218C300.289 459.614 299.859 449.588 299.7 442.716C299.62 439.279 299.609 436.631 299.617 434.843C299.622 433.949 299.631 433.27 299.639 432.815C299.64 432.743 299.641 432.677 299.643 432.616L890.383 432.616Z" stroke="white"/>
<path d="M890.383 -157.5L890.383 433.055C890.323 433.058 890.258 433.061 890.188 433.064C889.744 433.082 889.081 433.107 888.208 433.132C886.461 433.182 883.874 433.231 880.515 433.228C873.798 433.224 863.994 433.013 851.656 432.189C826.979 430.541 792.169 426.44 751.643 416.625C670.591 396.997 566.693 354.521 475.28 263.133C383.867 171.744 339.968 66.4611 318.924 -15.9828C308.402 -57.204 303.594 -92.7118 301.417 -117.912C300.329 -130.511 299.898 -140.534 299.739 -147.404C299.66 -150.839 299.648 -153.487 299.657 -155.274C299.661 -156.168 299.67 -156.846 299.678 -157.301C299.679 -157.373 299.681 -157.439 299.682 -157.5L890.383 -157.5Z" stroke="white"/>
<path d="M1480.5 432.616L1480.5 1023.17C1480.44 1023.17 1480.38 1023.18 1480.31 1023.18C1479.86 1023.2 1479.2 1023.22 1478.32 1023.25C1476.58 1023.3 1473.99 1023.35 1470.63 1023.34C1463.92 1023.34 1454.11 1023.13 1441.77 1022.31C1417.1 1020.66 1382.29 1016.56 1341.76 1006.74C1260.71 987.113 1156.81 944.638 1065.4 853.249C973.984 761.86 930.086 656.577 909.041 574.133C898.519 532.912 893.711 497.404 891.534 472.205C890.446 459.605 890.015 449.582 889.856 442.712C889.777 439.277 889.765 436.63 889.774 434.842C889.778 433.949 889.787 433.27 889.795 432.815C889.797 432.743 889.798 432.677 889.799 432.616L1480.5 432.616Z" stroke="white"/>
<path d="M889.732 433.425L889.732 -157.327C889.792 -157.329 889.857 -157.332 889.927 -157.335C890.372 -157.354 891.035 -157.379 891.908 -157.404C893.654 -157.453 896.242 -157.502 899.601 -157.5C906.318 -157.495 916.123 -157.285 928.462 -156.46C953.14 -154.812 987.953 -150.709 1028.48 -140.892C1109.54 -121.257 1213.44 -78.7669 1304.86 12.6521C1396.28 104.072 1440.18 209.389 1461.23 291.861C1471.75 333.096 1476.56 368.615 1478.74 393.824C1479.83 406.428 1480.26 416.453 1480.42 423.326C1480.49 426.762 1480.51 429.41 1480.5 431.198C1480.49 432.092 1480.48 432.771 1480.48 433.226C1480.48 433.298 1480.47 433.365 1480.47 433.425L889.732 433.425Z" stroke="white"/>
<path d="M300.268 -157.5L300.268 433.252C300.208 433.255 300.143 433.257 300.073 433.26C299.628 433.279 298.965 433.304 298.092 433.329C296.346 433.379 293.758 433.428 290.399 433.425C283.682 433.421 273.877 433.21 261.538 432.386C236.86 430.737 202.047 426.634 161.519 416.817C80.4617 397.182 -23.4434 354.692 -114.862 263.273C-206.282 171.853 -250.183 66.5359 -271.229 -15.9355C-281.752 -57.1704 -286.56 -92.69 -288.737 -117.898C-289.826 -130.502 -290.257 -140.528 -290.415 -147.401C-290.495 -150.837 -290.506 -153.485 -290.498 -155.273C-290.494 -156.167 -290.484 -156.846 -290.476 -157.301C-290.475 -157.373 -290.474 -157.439 -290.473 -157.5L300.268 -157.5Z" stroke="white"/>
<circle cx="-24.9254" cy="728.787" r="254.25" transform="rotate(90 -24.9254 728.787)" stroke="white"/>
</g>
<defs>
<clipPath id="clip0_97_4159">
<rect width="1100" height="1772" fill="white" transform="translate(1481 -158) rotate(90)"/>
</clipPath>
</defs>
</svg>
