<svg width="1439" height="1183" viewBox="0 0 1439 1183" fill="none" xmlns="http://www.w3.org/2000/svg">
<g opacity="0.4">
<path d="M848.383 590.616L848.383 1181.37C848.323 1181.37 848.258 1181.37 848.188 1181.38C847.744 1181.4 847.081 1181.42 846.207 1181.45C844.461 1181.49 841.874 1181.54 838.515 1181.54C831.797 1181.54 821.992 1181.33 809.653 1180.5C784.975 1178.85 750.162 1174.75 709.634 1164.93C628.577 1145.3 524.672 1102.81 433.253 1011.39C341.833 919.97 297.932 814.652 276.886 732.181C266.363 690.946 261.555 655.426 259.378 630.218C258.289 617.614 257.859 607.588 257.7 600.716C257.62 597.279 257.609 594.631 257.617 592.843C257.622 591.949 257.631 591.27 257.639 590.815C257.64 590.743 257.641 590.677 257.643 590.616L848.383 590.616Z" stroke="#8E8E8E"/>
<path d="M848.383 0.5L848.383 591.055C848.323 591.058 848.258 591.061 848.188 591.064C847.744 591.082 847.081 591.107 846.208 591.132C844.461 591.182 841.874 591.231 838.515 591.228C831.798 591.224 821.994 591.013 809.656 590.189C784.979 588.541 750.169 584.44 709.643 574.625C628.591 554.997 524.693 512.521 433.28 421.133C341.867 329.744 297.968 224.461 276.924 142.017C266.402 100.796 261.594 65.2882 259.417 40.0883C258.329 27.4885 257.898 17.4662 257.739 10.5958C257.66 7.16057 257.648 4.51338 257.657 2.72599C257.661 1.8323 257.67 1.15357 257.678 0.698774C257.679 0.626903 257.681 0.560625 257.682 0.499974L848.383 0.5Z" stroke="#8E8E8E"/>
<path d="M1438.5 590.616L1438.5 1181.17C1438.44 1181.17 1438.38 1181.18 1438.31 1181.18C1437.86 1181.2 1437.2 1181.22 1436.32 1181.25C1434.58 1181.3 1431.99 1181.35 1428.63 1181.34C1421.92 1181.34 1412.11 1181.13 1399.77 1180.31C1375.1 1178.66 1340.29 1174.56 1299.76 1164.74C1218.71 1145.11 1114.81 1102.64 1023.4 1011.25C931.984 919.86 888.086 814.577 867.041 732.133C856.519 690.912 851.711 655.404 849.534 630.205C848.446 617.605 848.015 607.582 847.856 600.712C847.777 597.277 847.765 594.63 847.774 592.842C847.778 591.949 847.787 591.27 847.795 590.815C847.797 590.743 847.798 590.677 847.799 590.616L1438.5 590.616Z" stroke="#8E8E8E"/>
<path d="M847.732 591.425L847.732 0.673279C847.792 0.670654 847.857 0.667847 847.927 0.664856C848.372 0.646118 849.035 0.621155 849.908 0.596314C851.654 0.546692 854.242 0.497559 857.601 0.499878C864.318 0.504639 874.123 0.715272 886.462 1.53955C911.14 3.18811 945.953 7.29102 986.481 17.1084C1067.54 36.7434 1171.44 79.2331 1262.86 170.652C1354.28 262.072 1398.18 367.389 1419.23 449.861C1429.75 491.096 1434.56 526.615 1436.74 551.824C1437.83 564.428 1438.26 574.453 1438.42 581.326C1438.49 584.762 1438.51 587.41 1438.5 589.198C1438.49 590.092 1438.48 590.771 1438.48 591.226C1438.48 591.298 1438.47 591.365 1438.47 591.425L847.732 591.425Z" stroke="#8E8E8E"/>
<path d="M258.268 0.5L258.268 591.252C258.208 591.255 258.143 591.257 258.073 591.26C257.628 591.279 256.965 591.304 256.092 591.329C254.346 591.379 251.758 591.428 248.399 591.425C241.682 591.421 231.877 591.21 219.538 590.386C194.86 588.737 160.047 584.634 119.519 574.817C38.4617 555.182 -65.4434 512.692 -156.862 421.273C-248.282 329.853 -292.183 224.536 -313.229 142.065C-323.752 100.83 -328.56 65.31 -330.737 40.1017C-331.826 27.4977 -332.257 17.4721 -332.415 10.5993C-332.495 7.16296 -332.506 4.51488 -332.498 2.7269C-332.494 1.83291 -332.484 1.15395 -332.476 0.699001C-332.475 0.627043 -332.474 0.560689 -332.473 0.499974L258.268 0.5Z" stroke="#8E8E8E"/>
<circle cx="-66.9254" cy="886.787" r="254.25" transform="rotate(90 -66.9254 886.787)" stroke="#8E8E8E"/>
</g>
</svg>
