<svg width="1530" height="861" viewBox="0 0 1530 861" fill="none" xmlns="http://www.w3.org/2000/svg">
<g opacity="0.4">
<path d="M939.387 269.616L939.387 860.368C939.327 860.371 939.262 860.374 939.192 860.377C938.748 860.395 938.085 860.42 937.211 860.445C935.465 860.495 932.878 860.544 929.519 860.542C922.801 860.537 912.996 860.326 900.657 859.502C875.979 857.853 841.166 853.75 800.638 843.933C719.581 824.298 615.676 781.808 524.257 690.389C432.837 598.97 388.936 493.652 367.89 411.181C357.367 369.946 352.559 334.426 350.382 309.218C349.293 296.614 348.862 286.588 348.704 279.716C348.624 276.279 348.613 273.631 348.621 271.843C348.626 270.949 348.635 270.27 348.643 269.815C348.644 269.743 348.645 269.677 348.647 269.616L939.387 269.616Z" stroke="#838383"/>
<path d="M939.387 -320.5L939.387 270.055C939.327 270.058 939.262 270.061 939.192 270.064C938.748 270.082 938.085 270.107 937.211 270.132C935.465 270.182 932.878 270.231 929.519 270.228C922.802 270.224 912.998 270.013 900.66 269.189C875.983 267.541 841.172 263.44 800.647 253.625C719.595 233.997 615.697 191.521 524.284 100.133C432.871 8.74357 388.972 -96.5389 367.928 -178.983C357.406 -220.204 352.598 -255.712 350.421 -280.912C349.333 -293.511 348.902 -303.534 348.743 -310.404C348.664 -313.839 348.652 -316.487 348.661 -318.274C348.665 -319.168 348.674 -319.846 348.682 -320.301C348.683 -320.373 348.685 -320.439 348.686 -320.5L939.387 -320.5Z" stroke="#838383"/>
<path d="M1529.5 269.616L1529.5 860.171C1529.44 860.174 1529.38 860.177 1529.31 860.18C1528.86 860.198 1528.2 860.223 1527.33 860.248C1525.58 860.298 1523 860.347 1519.64 860.345C1512.92 860.34 1503.11 860.129 1490.78 859.305C1466.1 857.657 1431.29 853.556 1390.76 843.742C1309.71 824.113 1205.81 781.638 1114.4 690.249C1022.99 598.86 979.089 493.577 958.045 411.133C947.523 369.912 942.715 334.404 940.538 309.205C939.45 296.605 939.019 286.582 938.86 279.712C938.781 276.277 938.769 273.63 938.778 271.842C938.782 270.949 938.791 270.27 938.799 269.815C938.801 269.743 938.802 269.677 938.803 269.616L1529.5 269.616Z" stroke="#838383"/>
<path d="M938.734 270.425L938.734 -320.327C938.794 -320.329 938.859 -320.332 938.929 -320.335C939.374 -320.354 940.037 -320.379 940.91 -320.404C942.656 -320.453 945.243 -320.502 948.602 -320.5C955.32 -320.495 965.125 -320.285 977.464 -319.46C1002.14 -317.812 1036.96 -313.709 1077.48 -303.892C1158.54 -284.257 1262.45 -241.767 1353.86 -150.348C1445.28 -58.9282 1489.19 46.3894 1510.23 128.861C1520.75 170.096 1525.56 205.615 1527.74 230.824C1528.83 243.428 1529.26 253.453 1529.42 260.326C1529.5 263.762 1529.51 266.41 1529.5 268.198C1529.5 269.092 1529.49 269.771 1529.48 270.226C1529.48 270.298 1529.48 270.365 1529.47 270.425L938.734 270.425Z" stroke="#838383"/>
<path d="M349.27 -320.5L349.27 270.252C349.21 270.255 349.145 270.257 349.075 270.26C348.63 270.279 347.967 270.304 347.094 270.329C345.348 270.379 342.76 270.428 339.401 270.425C332.683 270.421 322.879 270.21 310.54 269.386C285.862 267.737 251.049 263.634 210.521 253.817C129.464 234.182 25.5585 191.692 -65.8605 100.273C-157.28 8.85346 -201.181 -96.4641 -222.227 -178.935C-232.75 -220.17 -237.558 -255.69 -239.735 -280.898C-240.824 -293.502 -241.255 -303.528 -241.414 -310.401C-241.493 -313.837 -241.504 -316.485 -241.496 -318.273C-241.492 -319.167 -241.482 -319.846 -241.474 -320.301C-241.473 -320.373 -241.472 -320.439 -241.471 -320.5L349.27 -320.5Z" stroke="#838383"/>
<circle cx="24.0785" cy="565.787" r="254.25" transform="rotate(90 24.0785 565.787)" stroke="#838383"/>
</g>
</svg>
