<svg xmlns="http://www.w3.org/2000/svg" width="54" height="44" viewBox="0 0 54 44" fill="none">
  <path d="M10.9006 44C7.88199 44 5.31056 42.9962 3.18633 40.9886C1.06211 38.8695 0 36.36 0 33.4601C0 32.1217 0.167702 30.7833 0.503105 29.4449C0.95031 27.9949 1.73292 26.0989 2.85093 23.7567L14.087 0H24.1491L17.441 25.0951C20.3478 27.3257 21.8012 30.1141 21.8012 33.4601C21.8012 36.36 20.6832 38.8695 18.4472 40.9886C16.323 42.9962 13.8075 44 10.9006 44ZM40.7515 44C37.7329 44 35.1615 42.9962 33.0373 40.9886C30.913 38.8695 29.8509 36.36 29.8509 33.4601C29.8509 32.1217 30.0186 30.7833 30.354 29.4449C30.8012 27.9949 31.5839 26.0989 32.7019 23.7567L43.9379 0H54L47.2919 25.0951C50.1988 27.3257 51.6522 30.1141 51.6522 33.4601C51.6522 36.36 50.5342 38.8695 48.2981 40.9886C46.1739 42.9962 43.6584 44 40.7515 44Z" fill="#E64141"/>
</svg>
