<svg width="70" height="70" viewBox="0 0 70 70" fill="none" xmlns="http://www.w3.org/2000/svg">
<g id="continuous 1">
<path id="Vector" d="M9.84359 11.5784L8.42937 10.1642L6.88281 11.7107L9.07031 13.8982C9.28359 14.1115 9.56359 14.2187 9.84359 14.2187C10.1236 14.2187 10.4036 14.1115 10.6169 13.8982L16.0856 8.4295L14.5391 6.88293L9.84359 11.5784Z" fill="#E64141"/>
<path id="Vector (Stroke)" fill-rule="evenodd" clip-rule="evenodd" d="M9.84519 11.5784L14.5407 6.88294L16.0872 8.4295L10.6185 13.8983C10.4052 14.1115 10.1252 14.2187 9.84519 14.2187C9.56519 14.2187 9.28519 14.1115 9.07191 13.8983L6.88441 11.7108L8.43097 10.1642L9.84519 11.5784ZM9.84519 11.2956L14.5407 6.6001L16.3701 8.4295L10.7599 14.0397C10.5077 14.2919 10.1762 14.4187 9.84519 14.4187C9.51418 14.4187 9.18269 14.2919 8.93048 14.0397L6.60156 11.7108L8.43097 9.88135L9.84519 11.2956Z" fill="#E64141"/>
<path id="Vector_2" d="M31.7186 11.5784L30.3044 10.1642L28.7578 11.7107L30.9453 13.8982C31.1586 14.1115 31.4386 14.2187 31.7186 14.2187C31.9986 14.2187 32.2786 14.1115 32.4919 13.8982L37.9606 8.4295L36.4141 6.88293L31.7186 11.5784Z" fill="#E64141"/>
<path id="Vector (Stroke)_2" fill-rule="evenodd" clip-rule="evenodd" d="M31.7202 11.5784L36.4157 6.88294L37.9622 8.4295L32.4935 13.8983C32.2802 14.1115 32.0002 14.2187 31.7202 14.2187C31.4402 14.2187 31.1602 14.1115 30.9469 13.8983L28.7594 11.7108L30.306 10.1642L31.7202 11.5784ZM31.7202 11.2956L36.4157 6.6001L38.2451 8.4295L32.6349 14.0397C32.3827 14.2919 32.0512 14.4187 31.7202 14.4187C31.3892 14.4187 31.0577 14.2919 30.8055 14.0397L28.4766 11.7108L30.306 9.88135L31.7202 11.2956Z" fill="#E64141"/>
<path id="Vector_3" d="M53.5936 11.5784L52.1794 10.1642L50.6328 11.7107L52.8203 13.8982C53.0336 14.1115 53.3136 14.2187 53.5936 14.2187C53.8736 14.2187 54.1536 14.1115 54.3669 13.8982L59.8356 8.4295L58.2891 6.88293L53.5936 11.5784Z" fill="#E64141"/>
<path id="Vector (Stroke)_3" fill-rule="evenodd" clip-rule="evenodd" d="M53.5952 11.5784L58.2907 6.88294L59.8372 8.4295L54.3685 13.8983C54.1552 14.1115 53.8752 14.2187 53.5952 14.2187C53.3152 14.2187 53.0352 14.1115 52.8219 13.8983L50.6344 11.7108L52.181 10.1642L53.5952 11.5784ZM53.5952 11.2956L58.2907 6.6001L60.1201 8.4295L54.5099 14.0397C54.2577 14.2919 53.9262 14.4187 53.5952 14.4187C53.2642 14.4187 52.9327 14.2919 52.6805 14.0397L50.3516 11.7108L52.181 9.88135L53.5952 11.2956Z" fill="#E64141"/>
<path id="Vector_4" d="M14.2186 62.3437C14.4986 62.3437 14.7786 62.2365 14.9919 62.0232L20.4606 56.5545L18.9141 55.0079L14.2186 59.7034L12.8044 58.2892L11.2578 59.8357L13.4453 62.0232C13.6586 62.2365 13.9386 62.3437 14.2186 62.3437Z" fill="#E64141"/>
<path id="Vector (Stroke)_4" fill-rule="evenodd" clip-rule="evenodd" d="M20.7451 56.5545L15.1349 62.1647C14.8827 62.4169 14.5512 62.5437 14.2202 62.5437C13.8892 62.5437 13.5577 62.4169 13.3055 62.1647L10.9766 59.8358L12.806 58.0063L14.2202 59.4206L18.9157 54.7251L20.7451 56.5545ZM14.2202 59.7034L12.806 58.2892L11.2594 59.8358L13.4469 62.0233C13.6602 62.2365 13.9402 62.3437 14.2202 62.3437C14.5002 62.3437 14.7802 62.2365 14.9935 62.0233L20.4622 56.5545L18.9157 55.0079L14.2202 59.7034Z" fill="#E64141"/>
<path id="Vector_5" d="M36.0936 62.3437C36.3736 62.3437 36.6536 62.2365 36.8669 62.0232L42.3356 56.5545L40.7891 55.0079L36.0936 59.7034L34.6794 58.2892L33.1328 59.8357L35.3203 62.0232C35.5336 62.2365 35.8136 62.3437 36.0936 62.3437Z" fill="#E64141"/>
<path id="Vector (Stroke)_5" fill-rule="evenodd" clip-rule="evenodd" d="M42.6201 56.5545L37.0099 62.1647C36.7577 62.4169 36.4262 62.5437 36.0952 62.5437C35.7642 62.5437 35.4327 62.4169 35.1805 62.1647L32.8516 59.8358L34.681 58.0063L36.0952 59.4206L40.7907 54.7251L42.6201 56.5545ZM36.0952 59.7034L34.681 58.2892L33.1344 59.8358L35.3219 62.0233C35.5352 62.2365 35.8152 62.3437 36.0952 62.3437C36.3752 62.3437 36.6552 62.2365 36.8685 62.0233L42.3372 56.5545L40.7907 55.0079L36.0952 59.7034Z" fill="#E64141"/>
<path id="Vector_6" d="M57.9686 62.3437C58.2486 62.3437 58.5286 62.2365 58.7419 62.0232L64.2106 56.5545L62.6641 55.0079L57.9686 59.7034L56.5544 58.2892L55.0078 59.8357L57.1953 62.0232C57.4086 62.2365 57.6886 62.3437 57.9686 62.3437Z" fill="#E64141"/>
<path id="Vector (Stroke)_6" fill-rule="evenodd" clip-rule="evenodd" d="M64.4951 56.5545L58.8849 62.1647C58.6327 62.4169 58.3012 62.5437 57.9702 62.5437C57.6392 62.5437 57.3077 62.4169 57.0555 62.1647L54.7266 59.8358L56.556 58.0063L57.9702 59.4206L62.6657 54.7251L64.4951 56.5545ZM57.9702 59.7034L56.556 58.2892L55.0094 59.8358L57.1969 62.0233C57.4102 62.2365 57.6902 62.3437 57.9702 62.3437C58.2502 62.3437 58.5302 62.2365 58.7435 62.0233L64.2122 56.5545L62.6657 55.0079L57.9702 59.7034Z" fill="#E64141"/>
<path id="Vector_7" d="M67.8125 30.625V15.3125C67.8125 12.6514 65.8995 10.4333 63.3773 9.94875C62.8841 5.58797 59.1773 2.1875 54.6875 2.1875C50.2337 2.1875 46.5544 5.53437 46.013 9.84375H41.4859C40.9456 5.53437 37.2662 2.1875 32.8125 2.1875C28.3587 2.1875 24.6794 5.53437 24.138 9.84375H19.6109C19.0706 5.53437 15.3912 2.1875 10.9375 2.1875C6.11297 2.1875 2.1875 6.11297 2.1875 10.9375C2.1875 15.762 6.11297 19.6875 10.9375 19.6875C15.3912 19.6875 19.0706 16.3406 19.612 12.0312H24.1391C24.6805 16.3406 28.3598 19.6875 32.8136 19.6875C37.2673 19.6875 40.9467 16.3406 41.4881 12.0312H46.0152C46.5566 16.3406 50.2359 19.6875 54.6897 19.6875C59.0844 19.6875 62.7222 16.427 63.338 12.2008C64.6581 12.6241 65.625 13.8512 65.625 15.3125V30.625C65.625 32.4341 64.1528 33.9062 62.3437 33.9062H44.2028L46.7108 31.3983L45.1642 29.8517L41.1097 33.9062H35.4528L37.9608 31.3983L36.4142 29.8517L32.3597 33.9062H26.7028L29.2108 31.3983L27.6642 29.8517L23.6097 33.9062H7.65625C4.64078 33.9062 2.1875 36.3595 2.1875 39.375V54.6875C2.1875 57.3486 4.10047 59.5667 6.62266 60.0513C7.11594 64.412 10.8227 67.8125 15.3125 67.8125C19.7662 67.8125 23.4456 64.4656 23.987 60.1562H28.5141C29.0555 64.4656 32.7348 67.8125 37.1886 67.8125C41.6423 67.8125 45.3217 64.4656 45.8631 60.1562H50.3901C50.9316 64.4656 54.6109 67.8125 59.0647 67.8125C63.8892 67.8125 67.8147 63.887 67.8147 59.0625C67.8147 54.238 63.8892 50.3125 59.0647 50.3125C54.6109 50.3125 50.9316 53.6594 50.3901 57.9688H45.8631C45.3217 53.6594 41.6423 50.3125 37.1886 50.3125C32.7348 50.3125 29.0555 53.6594 28.5141 57.9688H23.987C23.4456 53.6594 19.7662 50.3125 15.3125 50.3125C10.9178 50.3125 7.28 53.573 6.66422 57.7992C5.34187 57.3759 4.375 56.1488 4.375 54.6875V39.375C4.375 37.5659 5.84719 36.0938 7.65625 36.0938H23.6097L27.6642 40.1483L29.2108 38.6017L26.7028 36.0938H32.3597L36.4142 40.1483L37.9608 38.6017L35.4528 36.0938H41.1097L45.1642 40.1483L46.7108 38.6017L44.2028 36.0938H62.3437C65.3592 36.0938 67.8125 33.6405 67.8125 30.625ZM10.9375 17.5C7.31828 17.5 4.375 14.5567 4.375 10.9375C4.375 7.31828 7.31828 4.375 10.9375 4.375C14.5567 4.375 17.5 7.31828 17.5 10.9375C17.5 14.5567 14.5567 17.5 10.9375 17.5ZM32.8125 17.5C29.1933 17.5 26.25 14.5567 26.25 10.9375C26.25 7.31828 29.1933 4.375 32.8125 4.375C36.4317 4.375 39.375 7.31828 39.375 10.9375C39.375 14.5567 36.4317 17.5 32.8125 17.5ZM54.6875 17.5C51.0683 17.5 48.125 14.5567 48.125 10.9375C48.125 7.31828 51.0683 4.375 54.6875 4.375C58.3067 4.375 61.25 7.31828 61.25 10.9375C61.25 14.5567 58.3067 17.5 54.6875 17.5ZM59.0625 52.5C62.6817 52.5 65.625 55.4433 65.625 59.0625C65.625 62.6817 62.6817 65.625 59.0625 65.625C55.4433 65.625 52.5 62.6817 52.5 59.0625C52.5 55.4433 55.4433 52.5 59.0625 52.5ZM37.1875 52.5C40.8067 52.5 43.75 55.4433 43.75 59.0625C43.75 62.6817 40.8067 65.625 37.1875 65.625C33.5683 65.625 30.625 62.6817 30.625 59.0625C30.625 55.4433 33.5683 52.5 37.1875 52.5ZM15.3125 52.5C18.9317 52.5 21.875 55.4433 21.875 59.0625C21.875 62.6817 18.9317 65.625 15.3125 65.625C11.6933 65.625 8.75 62.6817 8.75 59.0625C8.75 55.4433 11.6933 52.5 15.3125 52.5Z" fill="#E64141"/>
<path id="Vector (Stroke)_7" fill-rule="evenodd" clip-rule="evenodd" d="M44.2036 33.9063H62.3445C64.1536 33.9063 65.6258 32.4341 65.6258 30.625V15.3125C65.6258 13.9231 64.7516 12.7454 63.5308 12.269C63.4677 12.2444 63.4037 12.2216 63.3387 12.2008C63.329 12.2678 63.3185 12.3345 63.3072 12.4009C62.6075 16.5295 59.0155 19.6875 54.6905 19.6875C50.2367 19.6875 46.5573 16.3407 46.0159 12.0313H41.4889C40.9475 16.3407 37.2681 19.6875 32.8144 19.6875C28.3606 19.6875 24.6812 16.3407 24.1398 12.0313H19.6128C19.0714 16.3407 15.392 19.6875 10.9383 19.6875C6.11375 19.6875 2.18828 15.7621 2.18828 10.9375C2.18828 6.11302 6.11375 2.18755 10.9383 2.18755C15.392 2.18755 19.0714 5.53442 19.6117 9.8438H24.1387C24.6802 5.53442 28.3595 2.18755 32.8133 2.18755C37.267 2.18755 40.9464 5.53442 41.4867 9.8438H46.0137C46.5552 5.53442 50.2345 2.18755 54.6883 2.18755C59.1781 2.18755 62.8848 5.58802 63.3781 9.9488C65.9003 10.4333 67.8133 12.6515 67.8133 15.3125V30.625C67.8133 33.6405 65.36 36.0938 62.3445 36.0938H44.2036L46.7116 38.6018L45.165 40.1483L41.1105 36.0938H35.4536L37.9616 38.6018L36.415 40.1483L32.3605 36.0938H26.7036L29.2116 38.6018L27.665 40.1483L23.6105 36.0938H7.65703C5.84797 36.0938 4.37578 37.566 4.37578 39.375V54.6875C4.37578 56.0771 5.25006 57.2549 6.4729 57.7312C6.53603 57.7558 6.60008 57.7785 6.665 57.7993C6.67475 57.7323 6.68526 57.6656 6.69652 57.5992C7.3962 53.4706 10.9882 50.3125 15.3133 50.3125C19.767 50.3125 23.4464 53.6594 23.9878 57.9688H28.5148C29.0562 53.6594 32.7356 50.3125 37.1894 50.3125C41.6431 50.3125 45.3225 53.6594 45.8639 57.9688H50.3909C50.9323 53.6594 54.6117 50.3125 59.0655 50.3125C63.89 50.3125 67.8155 54.238 67.8155 59.0625C67.8155 63.8871 63.89 67.8125 59.0655 67.8125C54.6117 67.8125 50.9323 64.4657 50.3909 60.1563H45.8639C45.3225 64.4657 41.6431 67.8125 37.1894 67.8125C32.7356 67.8125 29.0562 64.4657 28.5148 60.1563H23.9878C23.4464 64.4657 19.767 67.8125 15.3133 67.8125C10.8234 67.8125 7.11672 64.4121 6.62344 60.0513C4.10125 59.5668 2.18828 57.3486 2.18828 54.6875V39.375C2.18828 36.3596 4.64156 33.9063 7.65703 33.9063H23.6105L27.665 29.8518L29.2116 31.3983L26.7036 33.9063H32.3605L36.415 29.8518L37.9616 31.3983L35.4536 33.9063H41.1105L45.165 29.8518L46.7116 31.3983L44.2036 33.9063ZM41.0276 33.7063L45.165 29.5689L46.9944 31.3983L44.6864 33.7063H62.3445C64.0431 33.7063 65.4258 32.3237 65.4258 30.625V15.3125C65.4258 14.025 64.6251 12.9289 63.4981 12.4712C62.7674 16.6759 59.1023 19.8876 54.6905 19.8876C50.1947 19.8876 46.4713 16.5543 45.8412 12.2313H41.6636C41.0335 16.5543 37.3101 19.8876 32.8144 19.8876C28.3186 19.8876 24.5952 16.5543 23.9652 12.2313H19.7875C19.1574 16.5543 15.434 19.8876 10.9383 19.8876C6.00329 19.8876 1.98828 15.8725 1.98828 10.9375C1.98828 6.00256 6.00329 1.98755 10.9383 1.98755C15.434 1.98755 19.1574 5.32079 19.7864 9.6438H23.9641C24.5942 5.32081 28.3175 1.98755 32.8133 1.98755C37.309 1.98755 41.0324 5.32079 41.6614 9.6438H45.8391C46.4692 5.32081 50.1925 1.98755 54.6883 1.98755C59.2316 1.98755 62.9902 5.39097 63.5593 9.78189C66.1022 10.3392 68.0133 12.604 68.0133 15.3125V30.625C68.0133 33.751 65.4705 36.2938 62.3445 36.2938H44.6864L46.9944 38.6018L45.165 40.4312L41.0276 36.2938H35.9364L38.2444 38.6018L36.415 40.4312L32.2776 36.2938H27.1864L29.4944 38.6018L27.665 40.4312L23.5276 36.2938H7.65703C5.95843 36.2938 4.57578 37.6764 4.57578 39.375V54.6875C4.57578 55.9752 5.37663 57.0714 6.50565 57.529C7.23631 53.3243 10.9014 50.1125 15.3133 50.1125C19.809 50.1125 23.5324 53.4458 24.1625 57.7688H28.3402C28.9702 53.4458 32.6936 50.1125 37.1894 50.1125C41.6851 50.1125 45.4085 53.4458 46.0386 57.7688H50.2162C50.8463 53.4458 54.5697 50.1125 59.0655 50.1125C64.0005 50.1125 68.0155 54.1276 68.0155 59.0625C68.0155 63.9975 64.0005 68.0125 59.0655 68.0125C54.5697 68.0125 50.8463 64.6793 50.2162 60.3563H46.0386C45.4085 64.6793 41.6851 68.0125 37.1894 68.0125C32.6936 68.0125 28.9702 64.6793 28.3402 60.3563H24.1625C23.5324 64.6793 19.809 68.0125 15.3133 68.0125C10.77 68.0125 7.01139 64.6091 6.44223 60.2182C3.89935 59.6609 1.98828 57.3961 1.98828 54.6875V39.375C1.98828 36.2491 4.53111 33.7063 7.65703 33.7063H23.5276L27.665 29.5689L29.4944 31.3983L27.1864 33.7063H32.2776L36.415 29.5689L38.2444 31.3983L35.9364 33.7063H41.0276ZM4.57578 10.9375C4.57578 14.4463 7.42952 17.3 10.9383 17.3C14.447 17.3 17.3008 14.4463 17.3008 10.9375C17.3008 7.42879 14.447 4.57505 10.9383 4.57505C7.42952 4.57505 4.57578 7.42879 4.57578 10.9375ZM26.4508 10.9375C26.4508 14.4463 29.3045 17.3 32.8133 17.3C36.322 17.3 39.1758 14.4463 39.1758 10.9375C39.1758 7.42879 36.322 4.57505 32.8133 4.57505C29.3045 4.57505 26.4508 7.42879 26.4508 10.9375ZM48.3258 10.9375C48.3258 14.4463 51.1795 17.3 54.6883 17.3C58.197 17.3 61.0508 14.4463 61.0508 10.9375C61.0508 7.42879 58.197 4.57505 54.6883 4.57505C51.1795 4.57505 48.3258 7.42879 48.3258 10.9375ZM65.4258 59.0625C65.4258 55.5538 62.572 52.7001 59.0633 52.7001C55.5545 52.7001 52.7008 55.5538 52.7008 59.0625C52.7008 62.5713 55.5545 65.425 59.0633 65.425C62.572 65.425 65.4258 62.5713 65.4258 59.0625ZM43.5508 59.0625C43.5508 55.5538 40.697 52.7001 37.1883 52.7001C33.6795 52.7001 30.8258 55.5538 30.8258 59.0625C30.8258 62.5713 33.6795 65.425 37.1883 65.425C40.697 65.425 43.5508 62.5713 43.5508 59.0625ZM21.6758 59.0625C21.6758 55.5538 18.822 52.7001 15.3133 52.7001C11.8045 52.7001 8.95078 55.5538 8.95078 59.0625C8.95078 62.5713 11.8045 65.425 15.3133 65.425C18.822 65.425 21.6758 62.5713 21.6758 59.0625ZM4.37578 10.9375C4.37578 14.5568 7.31906 17.5 10.9383 17.5C14.5575 17.5 17.5008 14.5568 17.5008 10.9375C17.5008 7.31833 14.5575 4.37505 10.9383 4.37505C7.31906 4.37505 4.37578 7.31833 4.37578 10.9375ZM26.2508 10.9375C26.2508 14.5568 29.1941 17.5 32.8133 17.5C36.4325 17.5 39.3758 14.5568 39.3758 10.9375C39.3758 7.31833 36.4325 4.37505 32.8133 4.37505C29.1941 4.37505 26.2508 7.31833 26.2508 10.9375ZM48.1258 10.9375C48.1258 14.5568 51.0691 17.5 54.6883 17.5C58.3075 17.5 61.2508 14.5568 61.2508 10.9375C61.2508 7.31833 58.3075 4.37505 54.6883 4.37505C51.0691 4.37505 48.1258 7.31833 48.1258 10.9375ZM65.6258 59.0625C65.6258 55.4433 62.6825 52.5 59.0633 52.5C55.4441 52.5 52.5008 55.4433 52.5008 59.0625C52.5008 62.6818 55.4441 65.625 59.0633 65.625C62.6825 65.625 65.6258 62.6818 65.6258 59.0625ZM43.7508 59.0625C43.7508 55.4433 40.8075 52.5 37.1883 52.5C33.5691 52.5 30.6258 55.4433 30.6258 59.0625C30.6258 62.6818 33.5691 65.625 37.1883 65.625C40.8075 65.625 43.7508 62.6818 43.7508 59.0625ZM21.8758 59.0625C21.8758 55.4433 18.9325 52.5 15.3133 52.5C11.6941 52.5 8.75078 55.4433 8.75078 59.0625C8.75078 62.6818 11.6941 65.625 15.3133 65.625C18.9325 65.625 21.8758 62.6818 21.8758 59.0625Z" fill="#E64141"/>
</g>
</svg>
