<svg xmlns="http://www.w3.org/2000/svg" width="76" height="76" viewBox="0 0 76 76" fill="none">
  <path d="M42.1496 70.6814C46.6203 71.153 52.6501 67.4398 60.2682 58.9527C65.798 52.764 71.0336 46.2809 75.9162 39.5913V68.4123C75.5337 71.5949 72.7101 74.0999 69.2687 74.0999H14.2067C18.4717 70.2395 23.0601 64.6696 27.2074 58.2748C31.3842 51.88 32.09 49.9349 35.0314 43.5696C36.2079 43.1276 39.6199 42.0078 42.1789 41.33C39.0906 47.548 35.8843 55.3279 35.5902 59.8662C35.0314 66.2022 37.6787 70.2395 42.1496 70.6814ZM26.2956 46.4576C26.2956 46.4576 20.9129 56.8014 17.1186 61.6344C15.0009 64.1982 6.94157 77.3709 1.35302 73.1275C-4.02965 67.764 9.76528 56.6836 12.5007 54.7974C17.2069 51.0843 26.2956 46.4576 26.2956 46.4576ZM6.94157 10.2397C1.85305 14.3655 0 18.5501 0 18.5501V8.29475C0 4.7879 3.059 1.8999 6.7651 1.8999H59.0917C59.0917 1.8999 56.0327 2.13565 53.0913 5.28888C51.4148 7.08652 46.0615 14.5128 40.2082 12.9804C34.3843 11.448 35.5315 6.64447 29.7371 5.05312C23.9427 3.46178 13.1184 5.22994 6.94157 10.2397ZM61.18 6.88022C63.9449 4.87631 63.0625 2.40088 61.0624 1.8999H69.2687C72.3277 1.8999 74.916 3.90381 75.7103 6.58553C71.0923 6.1435 63.4155 9.06096 57.3563 16.5462C51.2088 24.1493 46.0321 33.4027 46.0321 33.4027C46.0321 33.4027 41.267 34.7878 38.7963 35.5244C39.561 33.9037 43.032 27.2436 48.8558 18.9627C53.7972 11.949 58.827 8.58946 61.18 6.88022ZM29.9429 38.0588C20.7072 40.8585 6.26508 48.2848 0 56.713V28.5696C2.26484 31.9881 5.26501 34.0215 9.14759 34.935C14.0596 35.9371 18.9717 35.2003 23.3542 32.7838C25.3544 31.6934 27.1487 30.3378 28.7664 28.7171C32.0313 25.446 30.8547 21.556 28.1781 20.7603C25.5014 19.9942 22.913 21.7623 21.5895 23.884C20.2365 26.0354 18.4717 28.6582 12.736 28.6582C9.85351 28.6582 6.44155 26.8309 5.55915 22.7053C4.11789 16.4283 12.1478 9.94505 19.4129 8.85468C31.1488 7.05705 28.1781 14.837 33.7961 18.7269C35.2079 19.7584 38.9141 21.0255 42.2967 18.6975C40.5023 21.2318 32.8843 32.9311 29.9429 38.0588ZM64.0625 16.6641C67.5334 12.7446 73.1513 10.0629 75.5337 12.9215C77.8869 15.8095 70.7982 21.4971 66.2097 24.3262C61.6506 27.1551 57.2386 29.6011 53.4738 31.1924C55.8267 26.8309 61.5917 19.4931 64.0625 16.6641ZM66.0332 30.7505C68.7688 28.8938 73.2102 25.4755 75.9162 22.7936V33.8448C73.7985 36.4085 61.6212 50.0824 56.562 54.7385C47.944 62.6657 42.1496 61.4869 44.3849 53.1767C45.7379 48.2553 47.6499 43.4812 50.0912 39.0018C53.0032 37.8525 60.3565 34.6403 66.0332 30.7505Z" fill="#005191"/>
</svg>
