<svg width="70" height="70" viewBox="0 0 70 70" fill="none" xmlns="http://www.w3.org/2000/svg">
<g id="cyber-security 1" clip-path="url(#clip0_1098_7119)">
<g id="021---Cyber-Security">
<path id="Shape" d="M29.168 46.6667H40.8346C42.7676 46.6667 44.3346 45.0997 44.3346 43.1667V32.6667C44.3346 30.7337 42.7676 29.1667 40.8346 29.1667V26.8333C40.8346 23.6117 38.223 21 35.0013 21C31.7796 21 29.168 23.6117 29.168 26.8333V29.1667C27.235 29.1667 25.668 30.7337 25.668 32.6667V43.1667C25.668 45.0997 27.235 46.6667 29.168 46.6667ZM31.5013 26.8333C31.5013 24.9003 33.0683 23.3333 35.0013 23.3333C36.9343 23.3333 38.5013 24.9003 38.5013 26.8333V29.1667H31.5013V26.8333ZM28.0013 32.6667C28.0013 32.0223 28.5236 31.5 29.168 31.5H40.8346C41.479 31.5 42.0013 32.0223 42.0013 32.6667V43.1667C42.0013 43.811 41.479 44.3333 40.8346 44.3333H29.168C28.5236 44.3333 28.0013 43.811 28.0013 43.1667V32.6667Z" fill="#E64141"/>
<path id="Shape_2" d="M33.8337 40.6187V40.8333C33.8337 41.4777 34.356 42 35.0003 42C35.6447 42 36.167 41.4777 36.167 40.8333V40.6187C37.7741 40.0505 38.7382 38.4071 38.4499 36.727C38.1617 35.0469 36.705 33.8188 35.0003 33.8188C33.2957 33.8188 31.839 35.0469 31.5507 36.727C31.2625 38.4071 32.2265 40.0505 33.8337 40.6187ZM35.0003 36.1667C35.6447 36.1667 36.167 36.689 36.167 37.3333C36.167 37.9777 35.6447 38.5 35.0003 38.5C34.356 38.5 33.8337 37.9777 33.8337 37.3333C33.8337 36.689 34.356 36.1667 35.0003 36.1667Z" fill="#E64141"/>
<path id="Shape_3" d="M15.168 35C15.168 45.9536 24.0477 54.8333 35.0013 54.8333C45.955 54.8333 54.8346 45.9536 54.8346 35C54.8346 24.0463 45.955 15.1666 35.0013 15.1666C24.0527 15.1788 15.1802 24.0514 15.168 35ZM35.0013 17.5C44.6663 17.5 52.5013 25.335 52.5013 35C52.5013 44.665 44.6663 52.5 35.0013 52.5C25.3363 52.5 17.5013 44.665 17.5013 35C17.5122 25.3395 25.3409 17.5109 35.0013 17.5Z" fill="#E64141"/>
<path id="Shape_4" d="M58.3346 60.6666C56.2132 60.6745 54.364 62.1125 53.8336 64.1666H45.5013V57.1141C48.1098 55.8862 50.4798 54.2055 52.5013 52.1499C52.8001 51.8537 52.9163 51.4195 52.8053 51.0136C52.6943 50.6077 52.3734 50.2931 51.9654 50.1901C51.5574 50.0872 51.1256 50.2119 50.8353 50.5166C48.8544 52.5418 46.503 54.1676 43.9088 55.3058C43.7521 55.368 43.6111 55.464 43.4958 55.5869C43.483 55.6009 43.476 55.6196 43.4631 55.6359C43.3778 55.7308 43.3088 55.8393 43.259 55.9568C43.2361 56.0301 43.2209 56.1055 43.2135 56.1819C43.1918 56.248 43.1766 56.316 43.168 56.3849V56.4059V64.1666C43.168 65.4553 44.2126 66.4999 45.5013 66.4999H53.8336C54.444 68.8421 56.7465 70.3267 59.1318 69.9161C61.5171 69.5055 63.1907 67.3366 62.9829 64.9251C62.775 62.5136 60.7551 60.663 58.3346 60.6666ZM58.3346 67.6666C57.046 67.6666 56.0013 66.6219 56.0013 65.3333C56.0013 64.0446 57.046 62.9999 58.3346 62.9999C59.6233 62.9999 60.668 64.0446 60.668 65.3333C60.668 66.6219 59.6233 67.6666 58.3346 67.6666Z" fill="#E64141"/>
<path id="Shape_5" d="M9.16952 47.8334H14.8069C14.8162 47.8334 14.8244 47.8275 14.8349 47.8275C14.9509 47.8223 15.0654 47.7991 15.1744 47.7587C15.2288 47.7409 15.2818 47.719 15.333 47.6934C15.3459 47.6864 15.361 47.684 15.3739 47.6759C15.3867 47.6677 15.4065 47.6432 15.4252 47.6304C15.531 47.5651 15.6249 47.4823 15.7029 47.3854C15.7166 47.3674 15.7295 47.3487 15.7414 47.3294C15.8169 47.2231 15.8737 47.1048 15.9094 46.9794C15.9094 46.9619 15.9164 46.9444 15.9199 46.9269C15.9481 46.8426 15.9661 46.7553 15.9735 46.6667C15.9675 46.6226 15.9585 46.579 15.9467 46.536C15.9467 46.5209 15.9467 46.5069 15.9385 46.4905C15.9187 46.3537 15.874 46.2216 15.8067 46.1009L15.8009 46.0822C14.6046 44.0172 13.7526 41.7711 13.2785 39.4322C13.1497 38.8008 12.5333 38.3933 11.9019 38.5222C11.2704 38.6511 10.863 39.2674 10.9919 39.8989C11.3844 41.8344 12.0112 43.7149 12.8585 45.4989H9.16952C8.58203 43.2235 6.39427 41.74 4.06302 42.0361C1.73177 42.3322 -0.015625 44.3156 -0.015625 46.6655C-0.015625 49.0155 1.73177 50.9989 4.06302 51.295C6.39427 51.5911 8.58203 50.1087 9.16952 47.8334ZM4.66852 49C3.37986 49 2.33519 47.9554 2.33519 46.6667C2.33519 45.378 3.37986 44.3334 4.66852 44.3334C5.95719 44.3334 7.00186 45.378 7.00186 46.6667C7.00186 47.9554 5.95719 49 4.66852 49Z" fill="#E64141"/>
<path id="Shape_6" d="M3.65773e-06 23.3333C-0.00291493 25.6804 1.7411 27.6629 4.06939 27.9592C6.39768 28.2555 8.58265 26.773 9.16767 24.5H14.805H14.8365C14.9516 24.4934 15.0652 24.4702 15.1737 24.4311C15.2249 24.4148 15.2749 24.3945 15.323 24.3705C15.3852 24.3377 15.4438 24.2986 15.498 24.2538C15.5964 24.1795 15.6816 24.0892 15.75 23.9866C15.7652 23.9645 15.785 23.9481 15.799 23.9248C17.295 21.3288 19.3025 19.0636 21.7 17.2666C22.0335 17.0165 22.2082 16.6076 22.1583 16.1938C22.1084 15.7799 21.8416 15.4241 21.4583 15.2604C21.075 15.0967 20.6335 15.1499 20.3 15.4C17.8448 17.2494 15.7601 19.545 14.1552 22.1666H9.16767C8.58265 19.8936 6.39768 18.4111 4.06939 18.7074C1.7411 19.0037 -0.00291493 20.9862 3.65773e-06 23.3333ZM7.00001 23.3333C7.00001 24.622 5.95534 25.6666 4.66667 25.6666C3.37801 25.6666 2.33334 24.622 2.33334 23.3333C2.33334 22.0446 3.37801 21 4.66667 21C5.28551 21 5.879 21.2458 6.31659 21.6834C6.75417 22.121 7.00001 22.7145 7.00001 23.3333Z" fill="#E64141"/>
<path id="Shape_7" d="M65.3362 41.9999C63.2148 42.0079 61.3656 43.4458 60.8352 45.4999H57.1451C57.9932 43.7163 58.62 41.8357 59.0117 39.8999C59.1406 39.2682 58.7329 38.6516 58.1012 38.5227C57.4694 38.3938 56.8528 38.8015 56.7239 39.4333C56.2507 41.7721 55.3995 44.0182 54.2039 46.0833V46.0984C54.1342 46.2218 54.0883 46.3571 54.0686 46.4974C54.0686 46.5103 54.0686 46.5219 54.0604 46.5348C54.0484 46.5782 54.0386 46.6222 54.0312 46.6666C54.0383 46.7583 54.0563 46.8487 54.0849 46.9361C54.0849 46.9513 54.0849 46.9664 54.0942 46.9816C54.1305 47.1074 54.1885 47.2259 54.2658 47.3316C54.2774 47.3491 54.2867 47.3666 54.2996 47.3829C54.3786 47.4803 54.4732 47.5639 54.5796 47.6303C54.5982 47.6431 54.6099 47.6629 54.6298 47.6746C54.6496 47.6863 54.6578 47.6851 54.6706 47.6921C54.7224 47.7185 54.7762 47.7408 54.8316 47.7586C54.94 47.7977 55.0536 47.8205 55.1687 47.8263C55.1792 47.8263 55.1874 47.8321 55.1979 47.8321H60.8352C61.4451 50.1746 63.7474 51.6598 66.133 51.2495C68.5186 50.8393 70.1925 48.6703 69.9848 46.2586C69.777 43.8469 67.7569 41.9962 65.3362 41.9999ZM65.3362 48.9999C64.0476 48.9999 63.0029 47.9553 63.0029 46.6666C63.0029 45.3779 64.0476 44.3333 65.3362 44.3333C66.6249 44.3333 67.6696 45.3779 67.6696 46.6666C67.6696 47.9553 66.6249 48.9999 65.3362 48.9999Z" fill="#E64141"/>
<path id="Shape_8" d="M26.8352 56.4049V56.385C26.8278 56.3195 26.8149 56.2547 26.7967 56.1914C26.7884 56.1122 26.7724 56.034 26.7489 55.958C26.6998 55.8423 26.632 55.7355 26.5482 55.6419C26.533 55.6244 26.526 55.6034 26.5109 55.587C26.3951 55.464 26.2537 55.368 26.0967 55.3059C23.0428 53.958 20.3296 51.9432 18.1564 49.4095C17.8891 49.0804 17.4643 48.9223 17.0469 48.9964C16.6294 49.0705 16.285 49.3652 16.1474 49.7662C16.0097 50.1672 16.1003 50.6113 16.3842 50.9262C18.6278 53.5377 21.3929 55.6511 24.5019 57.1305V64.1667H16.1695C15.582 61.8913 13.3943 60.4078 11.063 60.7039C8.73177 61 6.98438 62.9834 6.98438 65.3334C6.98438 67.6833 8.73177 69.6667 11.063 69.9628C13.3943 70.2589 15.582 68.7754 16.1695 66.5H24.5019C25.7905 66.5 26.8352 65.4554 26.8352 64.1667V56.4049ZM11.6685 67.6667C10.3799 67.6667 9.33519 66.622 9.33519 65.3334C9.33519 64.0447 10.3799 63 11.6685 63C12.9572 63 14.0019 64.0447 14.0019 65.3334C14.0019 66.622 12.9572 67.6667 11.6685 67.6667Z" fill="#E64141"/>
<path id="Path" d="M39.4348 56.7233C36.5085 57.311 33.4945 57.311 30.5682 56.7233C30.1554 56.6286 29.7237 56.765 29.4403 57.0798C29.1569 57.3945 29.0664 57.8381 29.2037 58.2387C29.341 58.6393 29.6846 58.9341 30.1015 59.0088C31.3331 59.2481 32.5812 59.3928 33.8348 59.4416V68.8333C33.8348 69.4776 34.3572 70 35.0015 70C35.6458 70 36.1682 69.4776 36.1682 68.8333V59.4416C37.4218 59.3929 38.6699 59.2482 39.9015 59.0088C40.5189 58.8672 40.9104 58.2588 40.7837 57.6383C40.657 57.0177 40.0583 56.6116 39.4348 56.7233Z" fill="#E64141"/>
<path id="Shape_9" d="M24.5019 3.49998H16.1695C15.582 1.22462 13.3943 -0.258934 11.063 0.0371739C8.73177 0.333281 6.98438 2.31667 6.98438 4.66665C6.98438 7.01663 8.73177 9.00001 11.063 9.29612C13.3943 9.59223 15.582 8.10867 16.1695 5.83331H24.5019V13.6173C24.5019 13.664 24.524 13.7095 24.5299 13.7561C24.5421 13.8769 24.5732 13.995 24.622 14.1061C24.6705 14.2101 24.7351 14.3058 24.8134 14.3896C24.8524 14.432 24.895 14.471 24.9405 14.5063C24.9976 14.5531 25.059 14.5945 25.1237 14.63C25.1777 14.6599 25.2338 14.6856 25.2917 14.707C25.3751 14.7335 25.4612 14.7507 25.5484 14.7583C25.5867 14.7688 25.6257 14.777 25.665 14.7828C25.8322 14.7793 25.9966 14.7395 26.1469 14.6661C27.5681 14.0499 29.0501 13.5846 30.5685 13.2778C31.2003 13.1489 31.608 12.5323 31.4791 11.9006C31.3502 11.2688 30.7336 10.8611 30.1019 10.99C28.9931 11.2168 27.9016 11.5209 26.8352 11.9V5.83331C26.8352 4.54465 25.7905 3.49998 24.5019 3.49998ZM11.6685 6.99998C10.3799 6.99998 9.33519 5.95531 9.33519 4.66665C9.33519 3.37798 10.3799 2.33331 11.6685 2.33331C12.9572 2.33331 14.0019 3.37798 14.0019 4.66665C14.0019 5.28548 13.756 5.87898 13.3184 6.31656C12.8809 6.75415 12.2874 6.99998 11.6685 6.99998Z" fill="#E64141"/>
<path id="Shape_10" d="M53.8336 5.83331C54.4211 8.10867 56.6089 9.59223 58.9401 9.29612C61.2714 9.00001 63.0188 7.01663 63.0188 4.66665C63.0188 2.31667 61.2714 0.333281 58.9401 0.0371739C56.6089 -0.258934 54.4211 1.22462 53.8336 3.49998H45.5013C44.2126 3.49998 43.168 4.54465 43.168 5.83331V13.5928V13.6138C43.175 13.6826 43.1887 13.7506 43.2088 13.8168C43.2162 13.8932 43.2314 13.9687 43.2543 14.042C43.3041 14.1595 43.3731 14.2679 43.4585 14.3628C43.4713 14.378 43.4783 14.3978 43.4911 14.4118C43.6064 14.5348 43.7475 14.6308 43.9041 14.693C46.4978 15.8294 48.8492 17.4532 50.8306 19.4763C51.1167 19.7942 51.5539 19.9301 51.9698 19.8304C52.3858 19.7307 52.7138 19.4114 52.8247 18.9983C52.9355 18.5852 52.8114 18.1445 52.5013 17.85C50.4798 15.7944 48.1098 14.1137 45.5013 12.8858V5.83331H53.8336ZM58.3346 2.33331C59.6233 2.33331 60.668 3.37798 60.668 4.66665C60.668 5.95531 59.6233 6.99998 58.3346 6.99998C57.046 6.99998 56.0013 5.95531 56.0013 4.66665C56.0013 3.37798 57.046 2.33331 58.3346 2.33331Z" fill="#E64141"/>
<path id="Path_2" d="M35.0026 0C34.3583 0 33.8359 0.522334 33.8359 1.16667V11.6667C33.8359 12.311 34.3583 12.8333 35.0026 12.8333C36.4915 12.833 37.9766 12.9815 39.4359 13.2767C39.5127 13.2925 39.5909 13.3003 39.6693 13.3C40.2665 13.2977 40.7655 12.8448 40.8256 12.2506C40.8856 11.6565 40.4873 11.1129 39.9026 10.9912C38.671 10.7518 37.4229 10.6071 36.1693 10.5583V1.16667C36.1693 0.522334 35.6469 0 35.0026 0Z" fill="#E64141"/>
<path id="Shape_11" d="M60.8352 24.4999C61.4227 26.7753 63.6105 28.2589 65.9418 27.9627C68.273 27.6666 70.0204 25.6833 70.0204 23.3333C70.0204 20.9833 68.273 18.9999 65.9418 18.7038C63.6105 18.4077 61.4227 19.8912 60.8352 22.1666H55.1979C55.1758 22.1666 55.1582 22.1783 55.1372 22.1783C55.0696 22.1856 55.0028 22.1992 54.9378 22.2191C54.8419 22.238 54.7489 22.2694 54.6612 22.3124C54.6519 22.3124 54.6403 22.3124 54.6298 22.3241C54.6193 22.3358 54.5994 22.3556 54.5796 22.3684C54.4732 22.4349 54.3786 22.5184 54.2996 22.6158C54.2867 22.6321 54.2774 22.6496 54.2658 22.6671C54.1885 22.7728 54.1305 22.8913 54.0942 23.0171C54.0942 23.0323 54.0942 23.0474 54.0849 23.0626C54.0562 23.1503 54.0382 23.2412 54.0312 23.3333C54.0374 23.378 54.046 23.4224 54.0569 23.4663C54.0569 23.4791 54.0627 23.4908 54.0651 23.5036C54.0848 23.6439 54.1307 23.7793 54.2004 23.9026V23.9178C56.1462 27.287 57.1702 31.1092 57.1696 34.9999C57.1696 35.6443 57.6919 36.1666 58.3362 36.1666H68.8362C69.4806 36.1666 70.0029 35.6443 70.0029 34.9999C70.0029 34.3556 69.4806 33.8333 68.8362 33.8333H59.4644C59.3115 30.5985 58.5184 27.4262 57.1311 24.4999H60.8352ZM65.3362 20.9999C66.6249 20.9999 67.6696 22.0446 67.6696 23.3333C67.6696 24.6219 66.6249 25.6666 65.3362 25.6666C64.0476 25.6666 63.0029 24.6219 63.0029 23.3333C63.0029 22.0446 64.0476 20.9999 65.3362 20.9999Z" fill="#E64141"/>
<path id="Path_3" d="M1.16667 36.1667H11.6667C12.311 36.1667 12.8333 35.6443 12.8333 35C12.8309 32.6427 13.2046 30.3001 13.9405 28.0607C14.0708 27.6647 13.9799 27.2293 13.7021 26.9185C13.4243 26.6077 13.0018 26.4688 12.5937 26.5539C12.1857 26.6391 11.8541 26.9355 11.7238 27.3315C11.0385 29.4354 10.6421 31.6227 10.5455 33.8333H1.16667C0.522334 33.8333 0 34.3557 0 35C0 35.6443 0.522334 36.1667 1.16667 36.1667Z" fill="#E64141"/>
</g>
</g>
<defs>
<clipPath id="clip0_1098_7119">
<rect width="70" height="70" fill="white"/>
</clipPath>
</defs>
</svg>
