<svg width="375" height="482" viewBox="0 0 375 482" fill="none" xmlns="http://www.w3.org/2000/svg">
<g opacity="0.2">
<path d="M220.863 241.131L220.863 481.441C220.703 481.447 220.503 481.454 220.264 481.461C219.555 481.481 218.502 481.501 217.136 481.5C214.402 481.498 210.411 481.412 205.386 481.077C195.337 480.405 181.159 478.734 164.652 474.736C131.637 466.738 89.3214 449.434 52.0917 412.204C14.8613 374.973 -3.01954 332.081 -11.5923 298.487C-15.8784 281.691 -17.8367 267.224 -18.7233 256.958C-19.1667 251.825 -19.3421 247.743 -19.4067 244.946C-19.439 243.548 -19.4436 242.471 -19.4402 241.744C-19.4391 241.5 -19.437 241.295 -19.4348 241.131L220.863 241.131Z" stroke="white"/>
<path d="M220.863 0.5L220.863 240.73C220.703 240.736 220.503 240.742 220.264 240.749C219.555 240.769 218.503 240.789 217.136 240.788C214.403 240.787 210.411 240.701 205.387 240.365C195.339 239.694 181.161 238.024 164.655 234.027C131.643 226.032 89.3301 208.733 52.1029 171.515C14.875 134.297 -3.00467 91.4194 -11.5768 57.8369C-15.8627 41.0465 -17.8208 26.5838 -18.7074 16.3213C-19.1507 11.1902 -19.3261 7.10966 -19.3907 4.31379C-19.423 2.91587 -19.4277 1.83918 -19.4242 1.11297C-19.4231 0.868573 -19.421 0.663873 -19.4188 0.499989L220.863 0.5Z" stroke="white"/>
<path d="M461.5 241.131L461.5 481.361C461.34 481.367 461.14 481.374 460.901 481.38C460.191 481.401 459.139 481.421 457.773 481.42C455.039 481.418 451.048 481.332 446.024 480.996C435.976 480.325 421.798 478.655 405.292 474.658C372.28 466.663 329.967 449.364 292.74 412.147C255.512 374.929 237.632 332.05 229.06 298.468C224.774 281.678 222.816 267.215 221.929 256.952C221.486 251.821 221.311 247.741 221.246 244.945C221.214 243.547 221.209 242.47 221.212 241.744C221.214 241.5 221.216 241.295 221.218 241.131L461.5 241.131Z" stroke="white"/>
<path d="M221.195 240.869L221.195 0.558991C221.355 0.552948 221.556 0.546143 221.795 0.539337C222.504 0.519165 223.556 0.499161 224.923 0.500122C227.656 0.502045 231.648 0.587769 236.672 0.923417C246.721 1.59473 260.9 3.26563 277.407 7.26422C310.422 15.2616 352.737 32.5665 389.967 69.7962C427.197 107.027 445.078 149.919 453.651 183.513C457.937 200.309 459.895 214.776 460.782 225.042C461.225 230.175 461.401 234.257 461.465 237.054C461.498 238.452 461.502 239.529 461.499 240.256C461.498 240.5 461.496 240.705 461.493 240.869L221.195 240.869Z" stroke="white"/>
</g>
</svg>
