<svg width="1761" height="592" viewBox="0 0 1761 592" fill="none" xmlns="http://www.w3.org/2000/svg">
<g opacity="0.3">
<path d="M590.617 591.426L590.617 0.673523C590.677 0.670898 590.742 0.668091 590.812 0.6651C591.256 0.646362 591.919 0.621399 592.793 0.596558C594.539 0.546936 597.126 0.497803 600.485 0.500123C607.203 0.504884 617.008 0.715516 629.347 1.5398C654.025 3.18836 688.838 7.29126 729.366 17.1086C810.423 36.7436 914.328 79.2334 1005.75 170.652C1097.17 262.072 1141.07 367.39 1162.11 449.861C1172.64 491.096 1177.44 526.616 1179.62 551.824C1180.71 564.428 1181.14 574.453 1181.3 581.326C1181.38 584.763 1181.39 587.411 1181.38 589.199C1181.38 590.093 1181.37 590.772 1181.36 591.227C1181.36 591.298 1181.36 591.365 1181.36 591.426L590.617 591.426Z" stroke="white"/>
<path d="M0.5 591.426L0.500026 0.870422C0.559469 0.867798 0.624462 0.86499 0.694969 0.862C1.13911 0.843262 1.80208 0.818359 2.67524 0.793518C4.42157 0.743836 7.00865 0.694763 10.3674 0.697083C17.0849 0.701844 26.889 0.912416 39.2271 1.73645C63.9036 3.38446 98.7142 7.48597 139.24 17.3001C220.291 36.9285 324.19 79.4041 415.602 170.793C507.016 262.182 550.914 367.464 571.959 449.908C582.481 491.13 587.289 526.637 589.466 551.837C590.554 564.437 590.985 574.459 591.144 581.33C591.223 584.765 591.235 587.412 591.226 589.2C591.222 590.093 591.213 590.772 591.205 591.227C591.203 591.299 591.202 591.365 591.201 591.426L0.5 591.426Z" stroke="white"/>
<circle cx="1505.93" cy="295.255" r="254.25" transform="rotate(-90 1505.93 295.255)" stroke="white"/>
</g>
</svg>
