<svg width="871" height="855" viewBox="0 0 871 855" fill="none" xmlns="http://www.w3.org/2000/svg">
<path d="M221.777 7.86105L221.777 7.86026C226.659 2.96084 232.938 0.500027 240.61 0.500028L401.029 0.500042C408.706 0.500043 414.983 2.96074 419.892 7.86119L420.233 7.51957L419.892 7.86131C424.803 12.7615 427.265 19.034 427.265 26.7012L427.265 187.033C427.265 194.701 424.806 200.976 419.892 205.873C414.983 210.765 408.706 213.223 401.029 213.223L240.61 213.223C232.938 213.223 226.659 210.765 221.777 205.874L221.777 205.874C216.873 200.973 214.394 194.7 214.394 187.033L214.394 26.7011C214.394 19.0348 216.873 12.7589 221.777 7.86105ZM34.2843 469.928L33.9002 469.675L34.2844 469.928C42.8798 456.898 55.2442 443.57 71.3775 429.96L71.378 429.96C87.4955 416.327 100.292 406.599 109.752 400.764L109.49 400.338L109.753 400.764C119.195 394.935 132.848 386.99 150.648 376.983L150.652 376.981C169.099 366.379 184.317 352.546 196.328 335.499C208.315 318.51 214.382 304.629 214.382 293.899C214.382 286.21 216.862 279.939 221.768 275.036L221.768 275.035C226.659 270.136 232.935 267.678 240.61 267.678L401.02 267.678C408.698 267.678 414.974 270.136 419.883 275.036L420.195 274.724L419.883 275.036C424.797 279.939 427.25 286.208 427.25 293.899L427.25 323.961C427.25 361.11 412.701 395.941 383.524 428.419L383.896 428.753L383.524 428.419C354.321 460.942 322.213 484.971 287.193 500.527L287.187 500.529C260.448 512.782 241.428 525.347 230.223 538.227C218.971 551.139 213.377 568.261 213.377 589.492C213.377 608.089 223.965 624.642 244.933 639.179L244.934 639.179C265.911 653.708 289.804 660.971 316.642 660.971C345.688 660.971 369.738 654.27 388.782 640.832L388.787 640.828C407.233 627.433 431.21 601.775 460.736 563.923L460.742 563.916C465.653 557.365 472.464 554.082 481.231 554.082C487.832 554.082 492.998 555.727 496.778 558.96L496.789 558.969L496.801 558.978L607.063 642.475C607.064 642.476 607.065 642.477 607.066 642.477C613.407 647.441 617.072 652.77 618.157 658.457C619.241 664.141 617.764 670.275 613.636 676.885L613.631 676.892C542.421 795.313 439.272 854.5 304.118 854.5C255.735 854.5 208.462 843.105 162.302 820.311L162.083 820.756L162.302 820.311C116.153 797.532 77.6397 765.294 46.7662 723.604C15.9435 681.945 0.499958 636.674 0.499962 587.802C0.540858 563.36 4.02768 540.881 10.9491 520.335C17.9103 499.763 25.6831 482.957 34.2843 469.928Z" fill="#E64141" stroke="white"/>
<path d="M767.376 543.158L767.377 543.158C769.587 545.369 770.71 548.198 770.71 551.679V625.813C770.71 629.294 769.587 632.125 767.377 634.334L767.376 634.335C765.176 636.544 762.346 637.659 758.864 637.659H684.73C681.246 637.659 678.416 636.544 676.203 634.334L675.85 634.687L676.203 634.334C673.989 632.124 672.875 629.294 672.875 625.813V551.679C672.875 548.197 673.988 545.367 676.203 543.159C678.416 540.952 681.245 539.839 684.73 539.839H758.864C762.346 539.839 765.176 540.953 767.376 543.158ZM853.988 420.728L854.405 421.004L853.987 420.728C850.033 426.726 844.339 432.869 836.897 439.151L836.896 439.152C829.451 445.452 823.549 449.94 819.195 452.627L819.195 452.627C814.836 455.32 808.53 458.991 800.305 463.617L800.301 463.62C791.743 468.541 784.681 474.963 779.108 482.878C773.562 490.742 770.715 497.218 770.715 502.267C770.715 505.759 769.593 508.587 767.381 510.799L767.38 510.8C765.176 513.009 762.347 514.123 758.864 514.123H684.734C681.249 514.123 678.42 513.009 676.207 510.799L675.854 511.153L676.207 510.799C673.992 508.588 672.881 505.76 672.881 502.267V488.368C672.881 471.268 679.573 455.225 693.019 440.249L693.019 440.249C706.493 425.235 721.301 414.149 737.446 406.974L737.451 406.972C749.821 401.3 758.651 395.471 763.867 389.473C769.119 383.443 771.718 375.458 771.718 365.593C771.718 356.875 766.751 349.149 757.019 342.399L757.019 342.398C747.277 335.648 736.182 332.274 723.727 332.274C710.263 332.274 699.091 335.383 690.235 341.636L690.229 341.64C681.673 347.856 670.573 359.746 656.926 377.25L656.92 377.258C654.705 380.214 651.64 381.697 647.666 381.697C644.66 381.697 642.342 380.948 640.657 379.506L640.646 379.497L640.634 379.488L589.682 340.884C589.681 340.883 589.68 340.882 589.679 340.881C586.782 338.612 585.139 336.2 584.654 333.655C584.169 331.113 584.823 328.345 586.707 325.327L586.707 325.327L586.712 325.32C619.572 270.644 667.154 243.329 729.515 243.329C751.83 243.329 773.635 248.587 794.932 259.11L795.153 258.663L794.932 259.11C816.22 269.623 833.985 284.501 848.228 303.743C862.439 322.962 869.555 343.838 869.556 366.374C869.537 377.65 867.929 388.015 864.741 397.484C861.529 406.982 857.946 414.729 853.988 420.728Z" fill="#E64141" stroke="white"/>
</svg>
