<svg width="417" height="375" viewBox="0 0 417 375" fill="none" xmlns="http://www.w3.org/2000/svg">
<path d="M357.982 372.661L357.982 372.662C356.765 373.881 355.199 374.5 353.252 374.5H310.75C308.802 374.5 307.236 373.881 306.012 372.661L306.012 372.661C304.787 371.442 304.166 369.882 304.166 367.942V325.562C304.166 323.622 304.786 322.061 306.011 320.843C307.236 319.626 308.802 319.007 310.75 319.007H353.252C355.199 319.007 356.765 319.626 357.982 320.842L357.982 320.843C359.206 322.062 359.83 323.623 359.83 325.562V367.942C359.83 369.881 359.205 371.443 357.982 372.661ZM407.61 250.582L407.61 250.582C405.358 253.989 402.109 257.486 397.852 261.068L397.852 261.069C393.586 264.669 390.212 267.226 387.729 268.754L387.729 268.754C385.234 270.291 381.622 272.388 376.907 275.032L376.903 275.035C371.97 277.863 367.898 281.555 364.684 286.106C361.5 290.608 359.833 294.358 359.833 297.314C359.833 299.259 359.209 300.82 357.985 302.04L357.984 302.04C356.765 303.259 355.199 303.878 353.252 303.878H310.752C308.804 303.878 307.238 303.259 306.014 302.04L306.014 302.04C304.789 300.82 304.17 299.261 304.17 297.314V289.368C304.17 279.655 307.98 270.533 315.661 262.003L315.661 262.003C323.368 253.44 331.834 247.121 341.059 243.033L341.064 243.031C348.166 239.784 353.261 236.437 356.281 232.974C359.334 229.478 360.835 224.859 360.835 219.181C360.835 214.101 357.928 209.627 352.315 205.745L352.315 205.745C346.693 201.86 340.289 199.919 333.108 199.919C325.356 199.919 318.905 201.704 313.783 205.31L313.783 205.31L313.778 205.314C308.846 208.886 302.467 215.704 294.642 225.713L294.642 225.713L294.636 225.721C293.409 227.353 291.717 228.173 289.501 228.173C287.812 228.173 286.537 227.754 285.62 226.972L285.609 226.962L285.597 226.953L256.389 204.886C256.388 204.885 256.387 204.885 256.386 204.884C254.751 203.607 253.85 202.27 253.584 200.883C253.32 199.498 253.672 197.971 254.733 196.276L254.733 196.276L254.737 196.269C273.539 165.075 300.75 149.5 336.426 149.5C349.185 149.5 361.654 152.497 373.837 158.499L373.837 158.499C386.011 164.494 396.169 172.978 404.315 183.951C412.437 194.903 416.5 206.793 416.5 219.627C416.489 226.053 415.571 231.954 413.751 237.343C411.913 242.762 409.866 247.173 407.61 250.582Z" fill="#E64141" stroke="white"/>
<path d="M86.5618 79.7252L86.5613 79.7248C84.7154 77.8848 83.777 75.5296 83.777 72.6259L83.777 10.3682C83.777 7.46437 84.7155 5.10814 86.5612 3.26937L86.5621 3.26851C88.3991 1.42983 90.7628 0.500017 93.6784 0.500018L156.136 0.500023C159.053 0.500023 161.417 1.42968 163.264 3.26946L163.585 2.94729L163.264 3.26955C165.113 5.10894 166.045 7.46362 166.045 10.3682L166.045 72.6259C166.045 75.5307 165.114 77.8863 163.265 79.7243C161.417 81.5608 159.053 82.4895 156.136 82.4895L93.6784 82.4895C90.7627 82.4895 88.3988 81.5607 86.5618 79.7252ZM13.6026 182.644L13.6027 182.644C16.9285 177.616 21.7201 172.462 27.9863 167.189L27.9868 167.189C34.2586 161.898 39.227 158.133 42.8905 155.879L42.8907 155.879C46.5618 153.619 51.873 150.536 58.8021 146.651L58.8062 146.649C66.0261 142.51 71.9846 137.109 76.687 130.453C81.3611 123.846 83.7725 118.389 83.7725 114.122C83.7725 111.209 84.7109 108.855 86.5579 107.014L86.5583 107.014C88.3989 105.175 90.7617 104.246 93.6784 104.246L156.132 104.246C159.05 104.246 161.413 105.175 163.261 107.015L163.261 107.015C165.11 108.855 166.039 111.208 166.039 114.122L166.039 125.795C166.039 140.132 160.412 153.586 149.094 166.152L149.455 166.477L149.094 166.152C137.749 178.753 125.282 188.056 111.691 194.077L111.686 194.079C101.261 198.844 93.8094 203.745 89.4043 208.795C84.9638 213.877 82.7702 220.603 82.7702 228.902C82.7702 236.26 86.977 242.77 95.1884 248.447L95.1886 248.448C103.41 254.126 112.773 256.964 123.281 256.964C134.636 256.964 144.065 254.35 151.543 249.088L151.548 249.084C158.767 243.856 168.124 233.864 179.622 219.162L179.622 219.162L179.628 219.155C181.478 216.694 184.036 215.458 187.361 215.458C189.881 215.458 191.815 216.084 193.216 217.279L193.228 217.289L193.239 217.298L236.165 249.717C236.166 249.718 236.167 249.718 236.168 249.719C238.599 251.617 239.968 253.627 240.372 255.739C240.775 257.848 240.233 260.152 238.653 262.675L238.653 262.675L238.648 262.682C210.978 308.575 170.916 331.5 118.405 331.5C99.6167 331.5 81.2577 327.087 63.3252 318.256L63.1201 318.672L63.3251 318.256C45.4013 309.432 30.4443 296.946 18.4529 280.796C6.48907 264.669 0.50016 247.153 0.499979 228.247C0.515849 218.784 1.8692 210.089 4.55218 202.146C7.25702 194.174 10.2729 187.674 13.6026 182.644Z" fill="#E64141" stroke="white"/>
</svg>
