<svg xmlns="http://www.w3.org/2000/svg" width="157" height="170" viewBox="0 0 157 170" fill="none">
  <path fill-rule="evenodd" clip-rule="evenodd" d="M71.3694 13.5338C76.3006 5.15152 85.288 0 95 0C104.712 0 113.699 5.15152 118.631 13.5338L186.217 128.62C191.201 137.108 191.263 147.624 186.385 156.174C181.498 164.725 172.422 170 162.587 170H27.4134C17.5776 170 8.50185 164.725 3.6149 156.174C-1.26321 147.624 -1.20135 137.108 3.78281 128.62L71.3694 13.5338ZM105.039 47.7445C105.172 46.6646 104.535 45.6378 103.501 45.2926C102.476 44.9386 101.345 45.3634 100.797 46.3017L68.4443 101.853C68.0378 102.561 68.029 103.437 68.4355 104.146C68.8508 104.854 69.602 105.296 70.4238 105.296H89.2912L84.961 139.958C84.8284 141.038 85.4647 142.065 86.4986 142.41C87.5238 142.764 88.6549 142.339 89.2028 141.401L121.556 85.8497C121.962 85.1416 121.971 84.2653 121.564 83.5572C121.149 82.8491 120.398 82.4065 119.576 82.4065H100.709L105.039 47.7445Z" fill="black"/>
</svg>
