<svg xmlns="http://www.w3.org/2000/svg" width="14" height="14" viewBox="0 0 14 14" fill="none">
  <g clip-path="url(#clip0_1045_11610)">
    <path d="M7.53548 9.6776L5.39341 11.8197C5.39341 11.8197 5.39341 11.8198 5.39336 11.8198C5.39336 11.8198 5.39336 11.8198 5.39331 11.8198C4.5075 12.7057 3.0661 12.7057 2.18019 11.8198C1.75102 11.3906 1.51472 10.8201 1.51472 10.2132C1.51472 9.60641 1.75102 9.03591 2.18004 8.60674C2.18009 8.60669 2.18014 8.60664 2.18019 8.60659L4.32225 6.46447C4.61798 6.1687 4.61798 5.68914 4.3222 5.39342C4.02648 5.09769 3.54692 5.09769 3.25114 5.39342L1.10908 7.53553C1.10893 7.53568 1.10878 7.53589 1.10862 7.53604C0.393726 8.25119 0 9.20198 0 10.2132C0 11.2247 0.393878 12.1756 1.10913 12.8909C1.8474 13.6291 2.81708 13.9982 3.7868 13.9982C4.75652 13.9982 5.72625 13.6291 6.46442 12.8909C6.46447 12.8909 6.46447 12.8908 6.46447 12.8908L8.60654 10.7487C8.90226 10.4529 8.90226 9.97337 8.60649 9.6776C8.31081 9.38188 7.8313 9.38188 7.53548 9.6776Z" fill="#E64141"/>
    <path d="M14.0004 3.78679C14.0004 2.77531 13.6065 1.82437 12.8912 1.10912C11.4147 -0.367327 9.01232 -0.367276 7.53592 1.10912C7.53587 1.10922 7.53577 1.10927 7.53572 1.10937L5.39371 3.25134C5.09793 3.54706 5.09793 4.02667 5.39371 4.3224C5.54164 4.47034 5.73543 4.54425 5.92926 4.54425C6.12304 4.54425 6.31693 4.47028 6.46476 4.3224L8.60678 2.18043C8.60683 2.18033 8.60693 2.18028 8.60703 2.18018C9.49284 1.29437 10.9342 1.29432 11.8202 2.18018C12.2493 2.60935 12.4857 3.17995 12.4857 3.78679C12.4857 4.39359 12.2494 4.96408 11.8203 5.39325L11.8202 5.39341L9.67809 7.53552C9.38237 7.83125 9.38237 8.31081 9.67814 8.60658C9.82603 8.75447 10.0199 8.82844 10.2136 8.82844C10.4075 8.82844 10.6013 8.75447 10.7492 8.60658L12.8913 6.46446C12.8914 6.46431 12.8916 6.46411 12.8917 6.46396C13.6066 5.74881 14.0004 4.79802 14.0004 3.78679Z" fill="#E64141"/>
    <path d="M4.32339 9.67758C4.47128 9.82547 4.66511 9.89944 4.8589 9.89944C5.05273 9.89944 5.24656 9.82547 5.39445 9.67758L9.67869 5.39335C9.97446 5.09762 9.97446 4.61806 9.67869 4.32229C9.38296 4.02656 8.9034 4.02656 8.60763 4.32229L4.32339 8.60647C4.02762 8.9023 4.02762 9.38186 4.32339 9.67758Z" fill="#E64141"/>
  </g>
  <defs>
    <clipPath id="clip0_1045_11610">
      <rect width="14" height="14" fill="white"/>
    </clipPath>
  </defs>
</svg>
