<svg xmlns="http://www.w3.org/2000/svg" width="192" height="28" viewBox="0 0 192 28" fill="none">
  <path d="M182.56 1.80645C182.56 5.96343 179.151 9.33333 174.947 9.33333C179.151 9.33333 182.56 12.7032 182.56 16.8602C182.56 12.7032 185.968 9.33333 190.173 9.33333H192V14L187.28 14V18.6667H177.84V14H173.12V4.66667L177.84 4.66667V0H187.28V4.66667L192 4.66667V9.33333H190.173C185.968 9.33333 182.56 5.96343 182.56 1.80645Z" fill="white"/>
  <path d="M85.2656 1.80645C85.2656 5.96343 88.674 9.33333 92.8786 9.33333H98.6645V4.66667L89.9857 4.66667V2.03986e-07L85.2656 4.07973e-07V1.80645Z" fill="white"/>
  <path d="M0 16.8602C0 12.7032 3.40845 9.33333 7.61299 9.33333H14.0079V14H4.72006V28H0V16.8602Z" fill="white"/>
  <path fill-rule="evenodd" clip-rule="evenodd" d="M145.255 20.4731V16.8602C145.255 16.8174 145.256 16.7746 145.256 16.7319V16.2581H145.279C145.59 12.3826 148.869 9.33333 152.868 9.33333H158.502V9.33479C162.637 9.41441 165.964 12.7532 165.964 16.8602V20.9247L149.975 20.9247V23.3333H165.963V28H152.868C148.817 28 145.505 24.8715 145.269 20.9247H145.256V20.6014C145.256 20.5587 145.255 20.516 145.255 20.4731ZM161.244 16.2581L149.975 16.2581V14L161.244 14V16.2581Z" fill="white"/>
  <path fill-rule="evenodd" clip-rule="evenodd" d="M16.3045 20.9247H16.2921V20.6011C16.2913 20.5585 16.291 20.5159 16.291 20.4731V16.8602C16.291 16.8175 16.2913 16.7748 16.2921 16.7322V16.2581H16.315C16.6253 12.3826 19.9044 9.33333 23.904 9.33333H29.5376V9.33479C33.6724 9.41441 36.9994 12.7532 36.9994 16.8602V20.9247L21.011 20.9247L21.011 23.3333H36.9983V28H23.904C19.8528 28 16.5407 24.8715 16.3045 20.9247ZM21.011 14V16.2581L32.2794 16.2581V14L21.011 14Z" fill="white"/>
  <path d="M92.8786 28C88.674 28 85.2656 24.6301 85.2656 20.4731V18.6667H89.9857V23.3333H98.6645V28H92.8786Z" fill="white"/>
  <path d="M108.561 9.33333C104.357 9.33333 100.948 12.7032 100.948 16.8602V18.6667H105.668V14H111.301L111.302 14L116.935 14V18.6667L121.655 18.6667V16.8602C121.655 12.7032 118.246 9.33333 114.042 9.33333L108.561 9.33333Z" fill="white"/>
  <path d="M100.948 20.4731C100.948 24.6301 104.357 28 108.561 28L114.042 28C118.246 28 121.655 24.6301 121.655 20.4731V18.6667L116.935 18.6667V23.3333H111.302L111.301 23.3333L105.668 23.3333V18.6667H100.948V20.4731Z" fill="white"/>
  <path fill-rule="evenodd" clip-rule="evenodd" d="M46.8961 9.63442C42.6915 9.63442 39.2831 13.0043 39.2831 17.1613L39.2831 20.4731C39.2831 24.6301 42.6915 28 46.8961 28H59.9908V9.63442V8.12546e-06H55.2707V4.96775C55.2707 7.54508 57.3839 9.63441 59.9908 9.63442L46.8961 9.63442ZM55.2707 23.3333V14.3011H44.0031V23.3333L55.2707 23.3333Z" fill="white"/>
  <path d="M142.972 16.8602C142.972 12.7032 139.563 9.33333 135.359 9.33333H123.939V14H123.94V28H128.66V14L138.252 14V28L142.972 28V16.8602Z" fill="white"/>
  <path d="M85.2656 9.33333H89.9857V18.6667H85.2656V9.33333Z" fill="white"/>
  <path d="M68.1355 20.9247C64.898 20.9247 62.2735 18.3299 62.2735 15.129C62.2735 11.9282 64.898 9.33333 68.1355 9.33333H82.9808V14H66.9935V16.2581H77.0427C80.3222 16.2581 82.9808 18.8866 82.9808 22.129C82.9808 25.3715 80.3222 28 77.0427 28H62.2735V23.3333H78.2608V20.9247H68.1355Z" fill="white"/>
</svg>
