<svg width="30" height="30" viewBox="0 0 30 30" fill="none" xmlns="http://www.w3.org/2000/svg">
<path fill-rule="evenodd" clip-rule="evenodd" d="M23.0175 8.0175L19.4825 4.4825C19.0138 4.01375 18.3775 3.75 17.715 3.75H8.75C7.36875 3.75 6.25 4.86875 6.25 6.25V23.75C6.25 25.1313 7.36875 26.25 8.75 26.25H21.25C22.6313 26.25 23.75 25.1313 23.75 23.75V9.785C23.75 9.1225 23.4863 8.48625 23.0175 8.0175V8.0175Z" stroke="#8E8E8E" stroke-width="1.5" stroke-linecap="round" stroke-linejoin="round"/>
<path d="M23.75 10H18.75C18.06 10 17.5 9.44 17.5 8.75V3.75" stroke="#8E8E8E" stroke-width="1.5" stroke-linecap="round" stroke-linejoin="round"/>
<path d="M12.9258 20.6875H17.0758" stroke="#8E8E8E" stroke-width="1.5" stroke-linecap="round" stroke-linejoin="round"/>
<path fill-rule="evenodd" clip-rule="evenodd" d="M13.543 15.9388V14.4788C13.543 14.0763 13.8692 13.75 14.2717 13.75H15.7317C16.1342 13.75 16.4605 14.0763 16.4605 14.4788V15.9388C16.4605 16.3413 16.1342 16.6675 15.7317 16.6675H14.2717C13.8692 16.6663 13.543 16.34 13.543 15.9388Z" stroke="#8E8E8E" stroke-width="1.5" stroke-linecap="round" stroke-linejoin="round"/>
<path fill-rule="evenodd" clip-rule="evenodd" d="M10 21.7713V20.3113C10 19.9088 10.3263 19.5825 10.7288 19.5825H12.1888C12.5913 19.5825 12.9175 19.9088 12.9175 20.3113V21.7713C12.9175 22.1738 12.5913 22.5 12.1888 22.5H10.7288C10.3263 22.5 10 22.1738 10 21.7713Z" stroke="#8E8E8E" stroke-width="1.5" stroke-linecap="round" stroke-linejoin="round"/>
<path fill-rule="evenodd" clip-rule="evenodd" d="M17.082 21.7713V20.3113C17.082 19.9088 17.4083 19.5825 17.8108 19.5825H19.2708C19.6733 19.5825 19.9995 19.9088 19.9995 20.3113V21.7713C19.9983 22.1738 19.672 22.5 19.2695 22.5H17.8095C17.4083 22.5 17.082 22.1738 17.082 21.7713H17.082Z" stroke="#8E8E8E" stroke-width="1.5" stroke-linecap="round" stroke-linejoin="round"/>
<path d="M17.8016 19.5877L15.9141 16.6377" stroke="#8E8E8E" stroke-width="1.5" stroke-linecap="round" stroke-linejoin="round"/>
<path d="M12.1992 19.5877L14.0867 16.6377" stroke="#8E8E8E" stroke-width="1.5" stroke-linecap="round" stroke-linejoin="round"/>
</svg>
