<svg width="18" height="18" viewBox="0 0 18 18" fill="none" xmlns="http://www.w3.org/2000/svg">
<path d="M15.1362 3.1362C14.1308 3.02921 13.1412 2.80555 12.1875 2.46972C11.3123 2.16049 10.4728 1.75829 9.68335 1.27001C9.47734 1.14498 9.24098 1.07886 9 1.07886C8.75902 1.07886 8.52266 1.14498 8.31665 1.27001L8.3159 1.27076C7.52663 1.75864 6.68738 2.16059 5.8125 2.46972C4.85901 2.80548 3.86969 3.02915 2.86451 3.13622C2.54161 3.16929 2.24248 3.321 2.02504 3.56199C1.8076 3.80297 1.68732 4.11607 1.6875 4.44065V8.33713C1.68803 9.77477 2.07276 11.1862 2.80186 12.4252C3.53097 13.6642 4.57796 14.6859 5.83448 15.3845L8.36206 16.7892C8.55672 16.8987 8.77629 16.9562 8.99963 16.9562C9.22297 16.9562 9.44255 16.8987 9.63721 16.7892L12.1655 15.3845C13.422 14.6859 14.469 13.6642 15.1981 12.4252C15.9272 11.1862 16.312 9.77477 16.3125 8.33713V4.44065C16.3127 4.11617 16.1925 3.80316 15.9753 3.56219C15.758 3.32122 15.459 3.16943 15.1362 3.1362ZM11.9846 7.6377L9.17212 10.6377C9.03857 10.7805 8.85451 10.8653 8.65923 10.8742C8.46395 10.8831 8.27293 10.8153 8.12696 10.6853L6.43946 9.18531C6.29085 9.05322 6.20081 8.86751 6.18914 8.66903C6.17746 8.47055 6.24511 8.27557 6.3772 8.12696C6.50929 7.97836 6.695 7.88832 6.89348 7.87664C7.09196 7.86497 7.28694 7.93262 7.43554 8.06471L8.57739 9.07911L10.8904 6.61232C10.9606 6.53754 11.0453 6.47791 11.1394 6.4371C11.2335 6.39628 11.3349 6.37514 11.4375 6.37497C11.5837 6.37505 11.7267 6.41786 11.8489 6.49813C11.9711 6.57841 12.0672 6.69265 12.1253 6.82682C12.1835 6.96098 12.2011 7.1092 12.1761 7.25326C12.1511 7.39732 12.0846 7.53097 11.9846 7.6377Z" fill="#E64141"/>
</svg>
