<svg width="70" height="70" viewBox="0 0 70 70" fill="none" xmlns="http://www.w3.org/2000/svg">
<g id="search-data 1">
<g id="Group 97">
<path id="Vector" d="M26.6605 50.4616C22.7104 50.461 18.8213 49.4864 15.3377 47.6241C11.8541 45.7617 8.88353 43.0691 6.689 39.7846C4.49447 36.5001 3.14373 32.7252 2.7564 28.7941C2.36907 24.8629 2.9571 20.8969 4.46842 17.2473C5.97973 13.5977 8.3677 10.3771 11.4208 7.87069C14.474 5.36427 18.0981 3.64941 21.9722 2.87797C25.8463 2.10653 29.8508 2.30232 33.6312 3.448C37.4116 4.59367 40.8511 6.65388 43.6452 9.44618C47.0028 12.8069 49.2891 17.0874 50.215 21.7469C51.141 26.4063 50.6651 31.2357 48.8475 35.6249C47.03 40.014 43.9523 43.766 40.0033 46.4067C36.0543 49.0475 31.4111 50.4585 26.6605 50.4616ZM26.6605 4.30771C21.5441 4.3133 16.5879 6.09274 12.6363 9.34285C8.68479 12.593 5.9824 17.1127 4.98961 22.1319C3.99683 27.1511 4.77507 32.3592 7.19174 36.8689C9.60841 41.3787 13.514 44.9109 18.243 46.8639C22.9721 48.8169 28.232 49.0698 33.1265 47.5795C38.0211 46.0891 42.2475 42.9478 45.0857 38.6907C47.9238 34.4336 49.1981 29.3241 48.6913 24.2328C48.1846 19.1415 45.9282 14.3834 42.3067 10.7693C40.2513 8.71793 37.8112 7.09257 35.1262 5.98639C32.4413 4.88021 29.5644 4.31497 26.6605 4.3231V4.30771Z" fill="#E64141"/>
<path id="Vector (Stroke)" fill-rule="evenodd" clip-rule="evenodd" d="M43.9295 9.16322L43.9297 9.16344C47.3432 12.5801 49.6675 16.9318 50.6089 21.6689C51.5503 26.4059 51.0665 31.3157 49.2187 35.7779C47.3709 40.2401 44.2419 44.0545 40.2272 46.7392C36.2124 49.4239 31.492 50.8584 26.6624 50.8615H26.6621C22.6461 50.861 18.6923 49.8702 15.1507 47.9768C11.6091 46.0835 8.58904 43.346 6.35797 40.0068C4.1269 36.6676 2.75367 32.8298 2.35989 28.8333C1.96611 24.8367 2.56393 20.8047 4.10041 17.0943C5.63689 13.3839 8.06462 10.1096 11.1686 7.56149C14.2726 5.01335 17.957 3.26993 21.8956 2.48565C25.8342 1.70137 29.9055 1.90041 33.7488 3.06517C37.5921 4.22992 41.0889 6.32443 43.9295 9.16322ZM26.7856 4.32307C26.7444 4.32296 26.7033 4.32296 26.6621 4.32307V4.30769C26.5287 4.30784 26.3953 4.30919 26.2621 4.31174C21.2878 4.4071 16.4864 6.17748 12.6379 9.34282C8.68635 12.5929 5.98396 17.1126 4.99117 22.1318C3.99839 27.151 4.77663 32.3592 7.1933 36.8689C9.60997 41.3786 13.5155 44.9109 18.2446 46.8639C22.9736 48.8169 28.2335 49.0698 33.1281 47.5794C38.0227 46.0891 42.2491 42.9478 45.0872 38.6907C47.9254 34.4336 49.1996 29.3241 48.6929 24.2328C48.1862 19.1415 45.9298 14.3834 42.3083 10.7692C40.2529 8.71791 37.8127 7.09255 35.1278 5.98637C32.4809 4.89587 29.6475 4.33108 26.7856 4.32307ZM26.2621 4.71182C21.3805 4.80712 16.6689 6.54529 12.892 9.65175C9.01191 12.8431 6.3584 17.281 5.38357 22.2094C4.40874 27.1379 5.17291 32.2518 7.54587 36.68C9.91883 41.1081 13.7538 44.5765 18.3973 46.4942C23.0408 48.4119 28.2055 48.6602 33.0116 47.1968C37.8176 45.7334 41.9676 42.6489 44.7544 38.4688C47.5412 34.2887 48.7924 29.2716 48.2949 24.2724C47.7973 19.2732 45.5818 14.6012 42.0257 11.0524L42.3083 10.7692L42.0257 11.0524C40.0076 9.03823 37.6117 7.44233 34.9754 6.35621C32.3392 5.27008 29.5144 4.71509 26.6632 4.72307L26.2621 4.7242V4.71182ZM26.6621 50.4615C22.7119 50.461 18.8229 49.4864 15.3393 47.6241C11.8557 45.7617 8.88509 43.0691 6.69056 39.7846C4.49603 36.5001 3.14529 32.7252 2.75796 28.794C2.37063 24.8629 2.95866 20.8969 4.46998 17.2473C5.9813 13.5977 8.36926 10.3771 11.4224 7.87066C14.4755 5.36425 18.0996 3.64939 21.9737 2.87795C25.8478 2.10651 29.8524 2.3023 33.6328 3.44797C37.4131 4.59365 40.8526 6.65386 43.6467 9.44615C47.0044 12.8069 49.2906 17.0873 50.2166 21.7468C51.1425 26.4063 50.6667 31.2357 48.8491 35.6249C47.0315 40.014 43.9538 43.766 40.0048 46.4067C36.0558 49.0475 31.4127 50.4585 26.6621 50.4615Z" fill="#E64141"/>
<path id="Vector_2" d="M50.354 51.077C50.2284 51.0776 50.1041 51.0535 49.9879 51.006C49.8717 50.9585 49.7661 50.8885 49.677 50.8001L42.5001 43.6231C42.3707 43.4379 42.3112 43.2127 42.3323 42.9877C42.3534 42.7627 42.4537 42.5525 42.6153 42.3946C42.777 42.2366 42.9894 42.1412 43.2149 42.1253C43.4403 42.1094 43.6641 42.1741 43.8463 42.3077L51.0232 49.4847C51.1545 49.618 51.2437 49.787 51.2796 49.9707C51.3156 50.1544 51.2967 50.3445 51.2254 50.5176C51.1541 50.6906 51.0334 50.8388 50.8784 50.9437C50.7235 51.0487 50.5411 51.1057 50.354 51.1077V51.077Z" fill="#E64141"/>
<path id="Vector (Stroke)_2" fill-rule="evenodd" clip-rule="evenodd" d="M50.3557 51.1077C50.4337 51.1069 50.5109 51.0964 50.5857 51.077C50.6441 51.0617 50.7009 51.041 50.7555 51.015C50.7986 50.9945 50.8402 50.9707 50.88 50.9437C51.035 50.8388 51.1556 50.6905 51.227 50.5175C51.2983 50.3445 51.3172 50.1543 51.2812 49.9707C51.2453 49.787 51.1561 49.618 51.0247 49.4846L43.8478 42.3077C43.6656 42.174 43.4419 42.1094 43.2164 42.1253C42.991 42.1412 42.7785 42.2366 42.6169 42.3945C42.4553 42.5525 42.355 42.7627 42.3339 42.9877C42.3128 43.2127 42.3722 43.4379 42.5017 43.6231L49.6786 50.8C49.7677 50.8885 49.8733 50.9584 49.9895 51.0059C50.1026 51.0522 50.2235 51.0763 50.3457 51.077C50.3489 51.077 50.352 51.077 50.3552 51.077M49.9555 51.418C49.9158 51.4059 49.8766 51.3919 49.838 51.3762C49.6731 51.3087 49.5232 51.2094 49.3968 51.0839L49.3957 51.0829L42.1939 43.8811L42.1738 43.8522C41.9901 43.5893 41.9057 43.2697 41.9356 42.9503C41.9656 42.631 42.1079 42.3326 42.3374 42.1084C42.5668 41.8843 42.8683 41.7488 43.1883 41.7263C43.5083 41.7037 43.8259 41.7955 44.0845 41.9852L44.1091 42.0033L51.3098 49.204C51.4961 49.3932 51.6227 49.6331 51.6738 49.8938C51.7248 50.1545 51.698 50.4244 51.5968 50.67C51.4955 50.9156 51.3242 51.1259 51.1043 51.2749C50.8844 51.4238 50.6255 51.5048 50.3599 51.5077L49.9555 51.5121V51.418ZM50.3552 51.077L50.3557 51.1077L50.3552 51.077Z" fill="#E64141"/>
<path id="Vector_3" d="M62.8065 67.2308C62.2038 67.2332 61.6067 67.1162 61.0495 66.8864C60.4923 66.6567 59.9862 66.3188 59.5603 65.8923L49.6373 55.9693C49.0116 55.3222 48.5888 54.5062 48.4209 53.6219C48.253 52.7376 48.3473 51.8235 48.6923 50.9921C49.0373 50.1607 49.6178 49.4484 50.3625 48.9427C51.1071 48.4371 51.9834 48.1602 52.8834 48.1462C53.4909 48.1391 54.0935 48.2547 54.6553 48.486C55.217 48.7173 55.7263 49.0596 56.1526 49.4923L66.0757 59.4077C66.9283 60.2715 67.4064 61.4363 67.4064 62.65C67.4064 63.8637 66.9283 65.0286 66.0757 65.8923C65.6474 66.3219 65.1376 66.6616 64.5762 66.8915C64.0148 67.1213 63.4131 67.2367 62.8065 67.2308ZM52.8834 50.0539C52.3541 50.0519 51.8361 50.2074 51.3954 50.5006C50.9546 50.7938 50.611 51.2114 50.4081 51.7003C50.2053 52.1892 50.1524 52.7275 50.2562 53.2465C50.36 53.7656 50.6158 54.2421 50.9911 54.6154L60.9065 64.5385C61.4182 65.0244 62.097 65.2953 62.8026 65.2953C63.5083 65.2953 64.1871 65.0244 64.6988 64.5385C65.201 64.0352 65.483 63.3533 65.483 62.6423C65.483 61.9314 65.201 61.2495 64.6988 60.7462L54.7757 50.8231C54.5265 50.5766 54.231 50.3817 53.9063 50.2497C53.5816 50.1177 53.234 50.0512 52.8834 50.0539Z" fill="#E64141"/>
<path id="Vector (Stroke)_3" fill-rule="evenodd" clip-rule="evenodd" d="M66.0773 59.4077C66.9299 60.2715 67.408 61.4363 67.408 62.65C67.408 63.8637 66.9299 65.0285 66.0773 65.8923C65.649 66.3219 65.1392 66.6616 64.5778 66.8915C64.0163 67.1213 63.4147 67.2367 62.8081 67.2308C62.2054 67.2332 61.6082 67.1161 61.051 66.8864C60.4939 66.6567 59.9877 66.3188 59.5619 65.8923L49.6388 55.9692C49.0131 55.3221 48.5903 54.5062 48.4224 53.6219C48.2545 52.7376 48.3489 51.8235 48.6938 50.9921C49.0388 50.1607 49.6194 49.4483 50.364 48.9427C51.1087 48.437 51.985 48.1602 52.885 48.1462C53.4924 48.1391 54.0951 48.2547 54.6568 48.486C55.2186 48.7173 55.7279 49.0595 56.1542 49.4923L66.0773 59.4077ZM59.2788 66.1749L49.3512 56.2473C48.6713 55.5442 48.2119 54.6575 48.0294 53.6965C47.847 52.7356 47.9495 51.7422 48.3244 50.8388C48.6993 49.9353 49.3301 49.1612 50.1393 48.6118C50.9485 48.0623 51.9007 47.7614 52.8788 47.7462L52.8803 47.7462C53.5416 47.7385 54.1976 47.8643 54.8091 48.1161C55.4201 48.3677 55.9741 48.7399 56.438 49.2104C56.4384 49.2108 56.4388 49.2112 56.4392 49.2116L66.362 59.1267C67.2885 60.0653 67.808 61.3311 67.808 62.65C67.808 63.9689 67.2885 65.2347 66.362 66.1733L66.3606 66.1747C65.8946 66.6421 65.34 67.0116 64.7293 67.2616C64.1194 67.5113 63.4659 67.6368 62.8069 67.6308C62.1523 67.633 61.5037 67.5057 60.8986 67.2562C60.2925 67.0063 59.742 66.6388 59.2788 66.1749ZM52.8881 50.4538L52.8835 50.4539C52.4335 50.4522 51.9931 50.5844 51.6184 50.8336C51.2437 51.0829 50.9516 51.4379 50.7792 51.8535C50.6067 52.2692 50.5618 52.7268 50.65 53.1681C50.7383 53.6093 50.9557 54.0144 51.2748 54.3318L51.2756 54.3327L61.1871 64.2519C61.6241 64.665 62.2027 64.8952 62.8042 64.8952C63.4056 64.8952 63.9841 64.6651 64.421 64.2521C64.846 63.8242 65.0845 63.2455 65.0845 62.6423C65.0845 62.0373 64.8445 61.457 64.4172 61.0287L54.496 51.1075C54.4957 51.1072 54.4955 51.107 54.4952 51.1067C54.2836 50.8976 54.0328 50.7323 53.7572 50.6203C53.4813 50.5081 53.1859 50.4515 52.8881 50.4538ZM54.7773 50.8231L64.7004 60.7462C65.2025 61.2494 65.4845 61.9314 65.4845 62.6423C65.4845 63.3533 65.2025 64.0352 64.7004 64.5385C64.1886 65.0244 63.5099 65.2952 62.8042 65.2952C62.0985 65.2952 61.4198 65.0244 60.9081 64.5385L50.9927 54.6154C50.6174 54.2421 50.3616 53.7656 50.2578 53.2465C50.154 52.7274 50.2069 52.1892 50.4097 51.7003C50.6125 51.2113 50.9562 50.7937 51.3969 50.5006C51.8377 50.2074 52.3556 50.0519 52.885 50.0539C53.2355 50.0511 53.5831 50.1177 53.9079 50.2497C54.2326 50.3817 54.5281 50.5766 54.7773 50.8231Z" fill="#E64141"/>
<path id="Vector_4" d="M26.663 42.3077C26.5184 42.3095 26.3756 42.2751 26.2476 42.2077L11.6322 35.1616C11.471 35.0846 11.3349 34.9635 11.2396 34.8124C11.1443 34.6613 11.0937 34.4863 11.0938 34.3077V18.5616C11.0938 18.4022 11.1337 18.2454 11.21 18.1054C11.2862 17.9655 11.3963 17.8469 11.5302 17.7604C11.6641 17.674 11.8175 17.6225 11.9764 17.6106C12.1353 17.5987 12.2946 17.6268 12.4399 17.6923L27.0553 24.7385C27.2171 24.8168 27.3535 24.9392 27.4488 25.0916C27.544 25.244 27.5943 25.4203 27.5938 25.6V41.3539C27.5931 41.5151 27.5519 41.6736 27.4739 41.8147C27.3959 41.9559 27.2837 42.0751 27.1476 42.1616C27.0014 42.2513 26.8344 42.3017 26.663 42.3077ZM12.9784 33.7077L25.7091 39.8616V26.2L12.9784 20.0462V33.7077Z" fill="#E64141"/>
<path id="Vector (Stroke)_4" fill-rule="evenodd" clip-rule="evenodd" d="M27.5914 42.1121C27.3828 42.1147 28.3924 42.1121 26.0658 42.5652L11.4575 35.5225C11.2284 35.413 11.0344 35.2406 10.8989 35.0258C10.7633 34.8108 10.6914 34.5618 10.6914 34.3077V18.5615C10.6915 18.3353 10.7482 18.1127 10.8564 17.9141C10.9646 17.7154 11.1208 17.5471 11.3109 17.4244C11.5009 17.3017 11.7186 17.2286 11.9442 17.2117C12.1697 17.1948 12.3959 17.2347 12.6021 17.3277L12.6113 17.3319L27.2267 24.3781C27.4563 24.4892 27.6504 24.6632 27.7856 24.8796C27.9207 25.0957 27.992 25.3456 27.9914 25.6005L27.5914 25.6C27.5919 25.4202 27.5417 25.244 27.4464 25.0916C27.3512 24.9391 27.2148 24.8167 27.0529 24.7385L12.4376 17.6923C12.2923 17.6268 12.1329 17.5986 11.974 17.6105C11.8151 17.6224 11.6617 17.674 11.5278 17.7604C11.394 17.8469 11.2839 17.9655 11.2076 18.1054C11.1314 18.2454 11.0914 18.4022 11.0914 18.5615V34.3077C11.0914 34.4863 11.142 34.6613 11.2373 34.8124C11.3325 34.9635 11.4687 35.0846 11.6299 35.1615L26.2453 42.2077C26.3732 42.2751 26.516 42.3094 26.6606 42.3077C26.8321 42.3017 26.9991 42.2513 27.1453 42.1615C27.2814 42.0751 27.3936 41.9558 27.4715 41.8147C27.5495 41.6736 27.5907 41.5151 27.5914 41.3538V25.6L27.9914 25.6005M25.7068 39.8615V26.2L12.976 20.0461V33.7077L25.7068 39.8615ZM25.3068 39.2239V26.4509L13.376 20.6838V33.4568L25.3068 39.2239Z" fill="#E64141"/>
<path id="Vector_5" d="M26.663 26.5461C26.5194 26.5467 26.3775 26.5152 26.2477 26.4538L11.6323 19.4076C11.4711 19.3307 11.3349 19.2096 11.2397 19.0585C11.1444 18.9074 11.0938 18.7324 11.0938 18.5538C11.0919 18.3757 11.1398 18.2006 11.2323 18.0483C11.3247 17.896 11.4579 17.7727 11.6169 17.6923L26.2323 10.6615C26.3609 10.6006 26.5015 10.569 26.6438 10.569C26.7861 10.569 26.9267 10.6006 27.0553 10.6615L41.6707 17.7076C41.8325 17.7859 41.9689 17.9083 42.0642 18.0608C42.1595 18.2132 42.2097 18.3894 42.2092 18.5692C42.2092 18.7478 42.1586 18.9228 42.0633 19.0739C41.9681 19.225 41.8319 19.3461 41.6707 19.423L27.0553 26.4538C26.9326 26.5122 26.7989 26.5436 26.663 26.5461ZM14.2246 18.5538L26.663 24.5384L39.1015 18.5615L26.663 12.5769L14.2246 18.5538Z" fill="#E64141"/>
<path id="Vector (Stroke)_5" fill-rule="evenodd" clip-rule="evenodd" d="M26.6624 26.9461C26.4591 26.947 26.2581 26.9023 26.0742 26.8154L26.0715 26.8141L11.4575 19.7686C11.2284 19.6591 11.0344 19.4867 10.8989 19.2719C10.7637 19.0575 10.6918 18.8094 10.6914 18.556L10.6914 18.5538L11.0914 18.5538M26.6606 26.5461C26.517 26.5467 26.3751 26.5152 26.2453 26.4538L11.6299 19.4076M27.0529 26.4538C26.9302 26.5122 26.7965 26.5436 26.6606 26.5461L27.0529 26.4538ZM41.6683 17.7076C41.8301 17.7859 41.9665 17.9083 42.0618 18.0608C42.1571 18.2132 42.2073 18.3894 42.2068 18.5692C42.2068 18.7478 42.1562 18.9228 42.0609 19.0739C41.9657 19.225 41.8295 19.3461 41.6683 19.423L27.0529 26.4538M41.3105 19.0739L26.6679 26C26.0846 25.185 26.8607 26.9425 26.6679 26.946L26.6624 26.9461M41.3105 19.0739C40.9698 18.3638 41.3646 19.2148 41.5 19C41.6354 18.7854 41.8405 18.8075 41.8407 18.5538M27.0529 10.6615L41.6683 17.7076L27.0529 10.6615ZM26.2299 10.6615C26.3585 10.6006 26.4991 10.569 26.6414 10.569C26.7837 10.569 26.9243 10.6006 27.0529 10.6615M11.6145 17.6923L26.2299 10.6615L11.6145 17.6923ZM26.6607 24.0946L38.176 18.5613L26.6605 13.0207L15.1452 18.554L26.6607 24.0946ZM26.6606 24.5384L39.0991 18.5615L26.6606 12.5769L14.2222 18.5538L26.6606 24.5384Z" fill="#E64141"/>
<path id="Vector_6" d="M26.6609 42.3077C26.4816 42.3054 26.3063 42.2549 26.1532 42.1616C26.0171 42.0752 25.9049 41.9559 25.8269 41.8147C25.7489 41.6736 25.7077 41.5151 25.707 41.3539V25.6077C25.7065 25.428 25.7567 25.2517 25.852 25.0993C25.9473 24.9469 26.0837 24.8245 26.2455 24.7462L40.8609 17.7C41.0062 17.6313 41.1665 17.6005 41.327 17.6103C41.4874 17.6202 41.6428 17.6704 41.7786 17.7563C41.9144 17.8423 42.0264 17.9612 42.1039 18.1019C42.1815 18.2427 42.2223 18.4008 42.2224 18.5616V34.3077C42.2224 34.4864 42.1719 34.6614 42.0766 34.8125C41.9813 34.9636 41.8452 35.0846 41.684 35.1616L27.0686 42.2077C26.943 42.2742 26.8029 42.3085 26.6609 42.3077ZM27.607 26.2077V39.8385L40.3378 33.6847V20.077L27.607 26.2077Z" fill="#E64141"/>
<path id="Vector 3 (Stroke)" fill-rule="evenodd" clip-rule="evenodd" d="M39.0796 18.491C40.5682 17.8237 42.25 18.9129 42.25 20.5442V33.3914C42.25 34.2326 41.7808 35.0035 41.0337 35.3899L28.5337 41.8554C27.0361 42.6301 25.25 41.543 25.25 39.8569V26.1476C25.25 25.2611 25.7706 24.4571 26.5796 24.0945L39.0796 18.491ZM39.75 20.9302L27.75 26.3095V39.4462L39.75 33.2393V20.9302Z" fill="#E54141"/>
<path id="Vector_7" d="M19.3398 23.023C19.1608 23.0249 18.985 22.9751 18.8336 22.8796C18.6821 22.7841 18.5614 22.6469 18.486 22.4846C18.4312 22.372 18.3994 22.2498 18.3922 22.1249C18.385 22 18.4027 21.8749 18.4442 21.7568C18.4857 21.6388 18.5502 21.5301 18.6339 21.4372C18.7177 21.3442 18.819 21.2688 18.9321 21.2153L33.5475 14.1846C33.6607 14.1305 33.7833 14.0993 33.9086 14.0926C34.0338 14.086 34.1591 14.1041 34.2773 14.1459C34.3955 14.1877 34.5043 14.2523 34.5975 14.3362C34.6908 14.42 34.7666 14.5214 34.8206 14.6346C34.8747 14.7477 34.9059 14.8704 34.9125 14.9956C34.9191 15.1208 34.9011 15.2461 34.8593 15.3643C34.8175 15.4825 34.7528 15.5913 34.669 15.6846C34.5851 15.7778 34.4837 15.8536 34.3706 15.9076L19.7552 22.9307C19.626 22.994 19.4837 23.0256 19.3398 23.023Z" fill="#E64141"/>
<path id="Vector (Stroke)_6" fill-rule="evenodd" clip-rule="evenodd" d="M33.5452 14.1847C33.6583 14.1306 33.781 14.0994 33.9062 14.0927C34.0314 14.0861 34.1567 14.1042 34.2749 14.146C34.3931 14.1878 34.502 14.2524 34.5952 14.3363C34.6884 14.4201 34.7642 14.5215 34.8183 14.6347C34.8723 14.7478 34.9035 14.8705 34.9102 14.9957C34.9168 15.1209 34.8987 15.2462 34.8569 15.3644C34.8151 15.4826 34.7505 15.5914 34.6666 15.6847C34.5828 15.7779 34.4814 15.8537 34.3683 15.9077L19.7529 22.9308C19.6237 22.9941 19.4813 23.0257 19.3375 23.0231C19.1585 23.025 18.9827 22.9752 18.8312 22.8797C18.6798 22.7842 18.5591 22.647 18.4836 22.4847C18.4289 22.3721 18.397 22.2499 18.3898 22.125C18.3827 22.0001 18.4003 21.875 18.4418 21.7569C18.4833 21.6389 18.5478 21.5302 18.6316 21.4373C18.7153 21.3443 18.8167 21.2689 18.9298 21.2154L33.5452 14.1847ZM18.7575 20.8544C18.5971 20.9305 18.4533 21.0376 18.3344 21.1695C18.2153 21.3018 18.1235 21.4563 18.0645 21.6243C18.0054 21.7922 17.9803 21.9702 17.9905 22.1479C18.0006 22.3245 18.0455 22.4973 18.1224 22.6564C18.2304 22.8872 18.4023 23.0821 18.6179 23.218C18.8328 23.3536 19.082 23.4247 19.336 23.4231M18.7575 20.8544C18.7579 20.8542 18.7583 20.854 18.7587 20.8538L33.3728 13.8237C33.5333 13.747 33.7074 13.7027 33.885 13.6933C34.0627 13.6839 34.2405 13.7096 34.4082 13.7689C34.576 13.8281 34.7304 13.9199 34.8627 14.0389C34.995 14.1578 35.1025 14.3017 35.1792 14.4622C35.2559 14.6228 35.3002 14.7968 35.3096 14.9745C35.319 15.1522 35.2934 15.33 35.2341 15.4977C35.1748 15.6654 35.083 15.8199 34.964 15.9521C34.8452 16.0843 34.7015 16.1917 34.5412 16.2684C34.541 16.2685 34.5414 16.2683 34.5412 16.2684L19.9288 23.2901" fill="#E64141"/>
<path id="Vector_8" d="M21.3005 29.9384C21.1585 29.9392 21.0184 29.9049 20.8928 29.8384L16.5698 27.7615C16.4477 27.7135 16.3369 27.6409 16.2442 27.5482C16.1515 27.4555 16.0789 27.3447 16.0309 27.2227C15.983 27.1006 15.9607 26.97 15.9655 26.839C15.9703 26.708 16.002 26.5793 16.0587 26.4611C16.1154 26.3429 16.1959 26.2377 16.2951 26.152C16.3943 26.0663 16.5102 26.0019 16.6354 25.963C16.7606 25.924 16.8924 25.9113 17.0228 25.9256C17.1531 25.9399 17.2791 25.9809 17.3928 26.0461L21.7159 28.123C21.912 28.2162 22.0704 28.3734 22.165 28.5687C22.2596 28.764 22.2848 28.9858 22.2364 29.1974C22.188 29.4089 22.0689 29.5977 21.8987 29.7324C21.7286 29.8671 21.5176 29.9398 21.3005 29.9384Z" fill="#E64141"/>
<path id="Vector (Stroke)_7" fill-rule="evenodd" clip-rule="evenodd" d="M20.711 30.196L16.4063 28.1279C16.2389 28.0599 16.0868 27.959 15.959 27.8312C15.8274 27.6996 15.7244 27.5423 15.6563 27.3691C15.5882 27.1959 15.5566 27.0105 15.5634 26.8245C15.5702 26.6385 15.6152 26.456 15.6957 26.2882C15.7762 26.1204 15.8905 25.971 16.0313 25.8494C16.1721 25.7277 16.3365 25.6364 16.5142 25.5811C16.6919 25.5258 16.8791 25.5078 17.0641 25.5281C17.2438 25.5478 17.4178 25.6034 17.5756 25.6914L21.8852 27.7618C22.1631 27.8941 22.3885 28.1174 22.5226 28.3944C22.657 28.6716 22.6927 28.9864 22.624 29.2867C22.5553 29.587 22.3862 29.8548 22.1447 30.0461C21.9038 30.2368 21.6052 30.3399 21.298 30.3385L21.2956 30.3385H21.0235M21.7136 28.1231L17.3905 26.0462C17.2767 25.981 17.1507 25.94 17.0204 25.9257C16.8901 25.9114 16.7582 25.9241 16.633 25.9631C16.5078 26.002 16.392 26.0664 16.2928 26.1521C16.1936 26.2378 16.1131 26.343 16.0564 26.4612C15.9997 26.5794 15.9679 26.7081 15.9631 26.8391C15.9584 26.9701 15.9806 27.1007 16.0286 27.2228C16.0766 27.3448 16.1492 27.4556 16.2419 27.5483C16.3346 27.641 16.4454 27.7136 16.5674 27.7616L20.8905 29.8385" fill="#E64141"/>
</g>
</g>
</svg>
