<svg width="1920" height="490" viewBox="0 0 1920 490" fill="none" xmlns="http://www.w3.org/2000/svg">
<g opacity="0.15">
<path d="M192.746 489.544H66.8631V97.9088H-80V0H339.609V97.9088H192.746V489.544Z" fill="white"/>
<path d="M818.744 489.544H430.606V0H818.744V97.9088H556.489V192.321H762.796V290.23H556.489V391.635H818.744V489.544Z" fill="white"/>
<path d="M1003.91 489.544H867.535L1052.86 0H1192.73L1378.06 489.544H1241.69L1210.22 402.125H1035.38L1003.91 489.544ZM1066.85 311.21H1178.74L1122.8 146.863L1066.85 311.21Z" fill="white"/>
<path d="M1874.57 216.798L1776.66 391.635H1678.75L1580.84 216.798V489.544H1454.96V0H1587.84L1727.71 258.759L1867.58 0H2000.45V489.544H1874.57V216.798Z" fill="white"/>
</g>
</svg>
