<svg xmlns="http://www.w3.org/2000/svg" width="1920" height="274" viewBox="0 0 1920 274" fill="none">
  <path opacity="0.5" d="M198.589 487.5H199.089V487V98.7H344.291H344.791V98.2V1V0.5H344.291H-72H-72.5V1V98.2V98.7H-72H73.2018V487V487.5H73.7018H198.589ZM819.637 487.5H820.137V487V389.8V389.3H819.637H559.956V289.629H764.132H764.632V289.129V191.929V191.429H764.132H559.956V98.7H819.637H820.137V98.2V1V0.5H819.637H434.568H434.068V1V487V487.5H434.568H819.637ZM1003.34 487.5H1003.69L1003.81 487.169L1034.91 400.714H1207.66L1238.76 487.169L1238.88 487.5H1239.23H1374.53H1375.25L1375 486.823L1191.14 0.823079L1191.01 0.5H1190.67H1051.9H1051.56L1051.44 0.823079L867.574 486.823L867.318 487.5H868.042H1003.34ZM1769.98 390.3H1770.27L1770.41 390.044L1866.61 218.146V487V487.5H1867.11H1992H1992.5V487V1V0.5H1992H1860.17H1859.88L1859.73 0.762366L1721.41 256.834L1583.09 0.762365L1582.95 0.5H1582.65H1450.82H1450.32V1V487V487.5H1450.82H1575.71H1576.21V487V218.146L1672.41 390.044L1672.55 390.3H1672.84H1769.98ZM1121.29 148.353L1176.09 309.457H1066.48L1121.29 148.353Z" fill="#E54141" stroke="white"/>
</svg>
